{"glyphs":{":":{"x_min":0,"x_max":276,"ha":276,"o":"m 247 386 q 243 365 237 352 q 231 338 221 329 q 212 320 198 316 q 184 312 164 312 q 144 312 132 316 q 119 320 113 329 q 106 338 106 352 q 105 365 110 386 q 114 406 120 421 q 126 435 135 444 q 145 453 159 457 q 173 460 193 460 q 212 460 225 457 q 238 453 244 444 q 250 435 251 421 q 251 406 247 386 z m 184 67 q 180 46 174 32 q 167 19 158 10 q 148 1 134 -2 q 120 -6 100 -6 q 80 -6 68 -3 q 55 1 49 10 q 42 18 42 32 q 42 46 46 67 q 50 87 56 102 q 62 116 71 125 q 81 133 94 137 q 108 141 128 141 q 148 141 161 137 q 174 133 180 125 q 186 116 187 102 q 188 87 184 67 z"},"$":{"x_min":0,"x_max":507,"ha":507,"o":""},"?":{"x_min":0,"x_max":463,"ha":463,"o":"m 475 512 q 475 474 464 438 q 453 401 429 371 q 406 342 369 322 q 332 302 279 297 l 257 204 q 254 195 240 190 q 226 186 200 186 q 184 186 173 187 q 163 188 156 189 q 150 191 148 195 q 146 198 147 204 l 165 319 q 167 334 172 344 q 176 354 182 360 q 188 366 197 368 q 205 370 215 370 l 219 370 q 254 370 278 382 q 302 394 317 412 q 332 430 338 452 q 344 474 344 493 q 344 511 339 527 q 333 542 323 554 q 312 565 295 572 q 278 578 256 578 q 229 578 209 573 q 189 567 175 561 q 160 554 150 549 q 141 543 135 543 q 130 543 128 548 q 126 553 126 565 q 126 570 127 580 q 128 591 131 602 q 133 613 137 624 q 141 634 146 639 q 152 645 167 652 q 181 658 201 664 q 220 669 242 672 q 264 676 285 676 q 322 676 351 669 q 379 663 400 651 q 421 639 435 624 q 450 608 459 590 q 468 571 471 552 q 475 532 475 512 z m 249 95 q 249 86 247 74 q 245 62 241 51 q 238 39 233 28 q 229 18 223 11 q 213 2 199 -3 q 185 -7 162 -7 q 145 -7 133 -5 q 121 -2 115 3 q 108 9 106 16 q 104 24 104 34 q 104 42 105 53 q 106 64 110 77 q 113 89 118 100 q 123 111 129 118 q 140 128 155 133 q 169 137 189 137 q 208 137 220 134 q 231 130 238 125 q 244 119 246 111 q 249 104 249 95 z"},"<":{"x_min":0,"x_max":498,"ha":498,"o":"m 501 504 q 501 491 498 476 q 495 460 490 447 q 485 433 478 422 q 471 411 463 408 l 159 279 l 409 149 q 424 142 424 125 q 424 118 423 108 q 422 99 420 88 q 418 78 415 68 q 412 58 408 51 q 404 43 398 41 q 393 38 387 41 l 51 227 q 46 229 43 235 q 41 240 41 250 q 41 259 42 272 q 44 286 48 299 q 52 312 58 322 q 63 333 72 336 l 479 521 q 491 526 496 522 q 501 518 501 504 z"},"'":{"x_min":0,"x_max":233,"ha":233,"o":"m 206 444 q 203 434 192 429 q 181 424 155 424 q 143 424 134 425 q 126 427 121 429 q 117 432 115 436 q 113 439 114 444 l 147 663 q 148 673 162 678 q 177 683 208 683 q 240 683 251 678 q 263 673 261 663 z"},"=":{"x_min":0,"x_max":498,"ha":498,"o":"m 450 209 q 450 206 449 199 q 449 192 447 184 q 446 176 443 167 q 441 159 437 152 q 433 145 428 141 q 423 136 416 136 l 44 136 q 37 136 32 141 q 28 146 28 158 q 28 164 30 176 q 32 188 36 200 q 40 212 46 221 q 53 230 62 230 l 435 230 q 443 230 447 225 q 450 219 450 209 z m 490 406 q 490 403 489 396 q 488 389 487 381 q 485 373 483 365 q 480 356 477 349 q 473 342 467 338 q 462 333 456 333 l 83 333 q 76 333 72 338 q 68 343 68 355 q 68 361 70 373 q 71 385 75 397 q 79 409 86 418 q 92 427 102 427 l 474 427 q 482 427 486 422 q 490 417 490 406 z"},"a":{"x_min":0,"x_max":528,"ha":528,"o":"m 424 16 q 422 6 408 1 q 395 -3 365 -3 q 350 -3 341 -2 q 331 -1 325 1 q 319 3 318 7 q 316 11 317 16 l 331 86 q 323 70 307 53 q 291 36 269 21 q 247 7 220 -2 q 194 -11 166 -11 q 126 -11 101 2 q 75 16 59 39 q 43 62 37 92 q 30 122 30 155 q 30 186 36 222 q 42 258 54 294 q 66 331 85 364 q 104 397 131 423 q 158 449 192 465 q 227 480 270 480 q 311 480 342 463 q 373 446 396 414 l 404 453 q 406 463 420 467 q 433 472 463 472 q 478 472 487 470 q 497 469 503 467 q 508 465 510 461 q 512 458 511 453 z m 363 322 q 346 349 325 362 q 305 375 277 375 q 257 375 240 366 q 223 356 209 340 q 196 323 186 302 q 176 280 170 257 q 163 234 160 210 q 157 187 157 167 q 157 152 159 139 q 161 125 167 115 q 173 105 183 99 q 192 93 208 93 q 229 93 251 106 q 274 119 293 141 q 313 163 328 193 q 343 222 350 256 z"},"L":{"x_min":0,"x_max":423,"ha":423,"o":"m 385 86 q 385 83 384 75 q 383 68 382 58 q 380 48 377 38 q 375 28 371 19 q 367 11 362 5 q 357 0 351 0 l 62 0 q 54 0 47 2 q 41 4 36 10 q 32 15 31 22 q 29 30 31 41 l 146 615 q 147 620 151 624 q 155 627 163 630 q 171 632 183 634 q 196 635 215 635 q 233 635 246 634 q 258 632 265 630 q 271 627 274 624 q 276 620 275 615 l 173 106 l 373 106 q 379 106 382 101 q 385 95 385 86 z"},"3":{"x_min":0,"x_max":507,"ha":507,"o":"m 456 207 q 456 184 450 159 q 444 134 431 110 q 417 85 396 63 q 375 42 344 25 q 313 8 272 -1 q 231 -11 178 -11 q 154 -11 133 -9 q 111 -6 91 -1 q 71 3 55 10 q 38 17 25 24 q 16 30 13 37 q 9 43 9 54 q 9 58 10 65 q 11 73 12 81 q 14 90 16 99 q 18 108 21 115 q 23 123 27 128 q 31 132 36 132 q 41 132 52 126 q 62 120 79 112 q 96 104 120 98 q 143 91 174 91 q 208 91 234 101 q 259 110 275 126 q 292 141 300 161 q 308 180 308 200 q 308 216 302 230 q 297 244 283 254 q 270 264 248 270 q 227 275 194 275 l 134 275 q 124 275 120 280 q 116 284 116 294 q 116 297 116 305 q 117 312 119 320 q 121 329 124 337 q 126 346 130 353 q 134 360 139 365 q 144 370 150 370 l 205 370 q 238 370 264 379 q 290 388 307 403 q 325 418 335 439 q 344 459 344 482 q 344 509 328 525 q 311 542 272 542 q 247 542 223 534 q 199 526 180 517 q 160 507 146 500 q 132 492 126 492 q 120 492 117 497 q 115 502 115 511 q 115 516 116 526 q 117 536 120 548 q 123 560 127 572 q 132 583 138 589 q 144 595 160 604 q 177 613 201 622 q 225 631 254 637 q 284 643 315 643 q 359 643 392 634 q 424 624 446 607 q 467 589 477 565 q 487 540 487 510 q 487 479 477 449 q 467 420 448 396 q 430 372 403 354 q 375 337 341 329 l 341 327 q 373 324 395 312 q 417 300 430 283 q 444 266 450 246 q 456 226 456 207 z"},";":{"x_min":0,"x_max":276,"ha":276,"o":"m 248 386 q 244 366 238 352 q 231 338 222 329 q 212 321 198 317 q 184 312 164 312 q 144 312 132 316 q 119 320 113 329 q 106 337 106 351 q 105 365 110 386 q 114 408 120 422 q 126 437 136 445 q 146 454 159 457 q 173 460 193 460 q 214 460 226 456 q 239 452 245 443 q 251 435 251 420 q 252 406 248 386 z m 191 108 q 191 72 175 36 q 159 0 131 -31 l 48 -123 q 43 -127 38 -131 q 33 -134 26 -136 q 19 -139 10 -140 q 1 -141 -11 -141 q -26 -141 -34 -139 q -42 -138 -45 -135 q -48 -132 -46 -127 q -45 -123 -41 -116 l 44 18 l 59 90 q 62 106 67 117 q 72 127 80 132 q 88 138 100 139 q 113 141 131 141 q 149 141 160 139 q 172 138 179 134 q 186 129 188 123 q 191 117 191 108 z"},"J":{"x_min":0,"x_max":331,"ha":331,"o":"m 251 168 q 243 128 229 95 q 215 62 192 39 q 169 16 137 3 q 105 -10 62 -10 q 39 -10 18 -6 q -2 -3 -16 3 q -29 9 -33 14 q -37 19 -37 28 q -37 32 -36 41 q -35 49 -33 59 q -31 69 -28 80 q -25 91 -22 100 q -19 109 -15 115 q -11 121 -7 121 q 0 121 4 118 q 9 115 16 111 q 22 107 31 104 q 41 101 55 101 q 69 101 81 105 q 92 109 100 118 q 108 127 114 142 q 120 156 124 177 l 212 615 q 213 620 217 624 q 220 627 228 630 q 236 632 249 634 q 262 635 280 635 q 298 635 310 634 q 322 633 329 630 q 336 628 339 624 q 342 621 341 615 z"},"V":{"x_min":0,"x_max":591,"ha":591,"o":"m 343 22 q 338 14 333 9 q 329 4 319 1 q 310 -1 295 -2 q 279 -3 254 -3 q 226 -3 208 -2 q 191 -1 183 1 q 174 4 171 9 q 167 15 167 24 l 89 595 q 88 608 88 616 q 89 624 95 628 q 102 632 115 634 q 128 635 152 635 q 176 635 190 634 q 203 633 210 630 q 217 627 219 623 q 221 618 222 610 l 276 124 l 277 124 l 522 612 q 526 619 530 623 q 535 628 543 630 q 551 633 564 634 q 578 635 600 635 q 623 635 636 633 q 649 632 654 626 q 658 621 655 611 q 651 600 642 583 z"},"\"":{"x_min":0,"x_max":438,"ha":438,"o":"m 389 444 q 388 439 385 436 q 382 432 376 429 q 370 427 362 425 q 353 424 340 424 q 327 424 319 425 q 311 427 306 429 q 302 432 301 436 q 299 439 300 444 l 333 663 q 333 667 337 671 q 340 675 347 678 q 354 681 366 682 q 377 683 393 683 q 424 683 435 678 q 446 673 444 663 z m 203 444 q 202 439 199 436 q 196 432 190 429 q 185 427 176 425 q 167 424 154 424 q 141 424 133 425 q 125 427 121 429 q 116 432 115 436 q 113 439 114 444 l 147 663 q 147 667 151 671 q 155 675 162 678 q 169 681 180 682 q 191 683 207 683 q 239 683 250 678 q 261 673 258 663 z"},"7":{"x_min":0,"x_max":507,"ha":507,"o":"m 540 610 q 540 603 539 591 q 537 578 533 563 q 530 548 523 531 q 517 515 507 499 l 203 18 q 199 11 193 7 q 187 3 178 1 q 168 -1 155 -2 q 142 -3 123 -3 q 96 -3 81 -1 q 66 0 59 4 q 52 8 52 14 q 52 20 58 28 l 379 521 l 117 521 q 110 521 107 526 q 104 532 104 543 q 104 547 105 555 q 106 563 108 573 q 110 583 113 593 q 116 604 120 612 q 124 621 129 626 q 134 632 140 632 l 516 632 q 530 632 535 627 q 540 622 540 610 z"},"S":{"x_min":0,"x_max":465,"ha":465,"o":"m 468 583 q 468 580 468 572 q 467 565 465 556 q 464 547 462 538 q 459 529 456 522 q 453 514 449 509 q 445 504 441 504 q 434 504 424 510 q 414 517 399 524 q 384 531 364 537 q 344 543 318 543 q 292 543 274 536 q 255 528 244 516 q 232 504 226 490 q 221 475 221 459 q 221 442 229 428 q 238 415 253 404 q 268 392 286 381 q 305 371 324 359 q 344 347 363 333 q 381 319 396 301 q 411 283 419 259 q 428 235 428 205 q 428 159 410 119 q 391 80 357 51 q 323 22 275 5 q 227 -11 168 -11 q 137 -11 110 -6 q 83 -1 62 6 q 42 14 27 22 q 13 30 6 37 q 0 44 0 59 q 0 63 0 71 q 1 79 3 88 q 5 97 7 106 q 10 116 13 124 q 17 131 21 136 q 25 141 30 141 q 38 141 50 134 q 61 126 78 117 q 95 108 119 100 q 142 92 175 92 q 204 92 225 100 q 247 107 262 120 q 276 132 284 149 q 292 166 292 186 q 292 204 283 218 q 274 231 260 243 q 245 254 227 265 q 208 275 189 287 q 170 298 152 312 q 134 326 119 344 q 105 362 96 386 q 87 410 87 442 q 87 486 105 523 q 123 560 154 587 q 185 613 229 628 q 272 643 324 643 q 349 643 371 639 q 393 636 411 630 q 429 625 441 618 q 454 611 459 606 q 464 602 466 596 q 468 591 468 583 z"},"}":{"x_min":0,"x_max":344,"ha":344,"o":"m -20 -140 q -20 -132 -17 -120 q -15 -108 -11 -98 q -7 -87 -1 -79 q 4 -71 12 -71 l 27 -71 q 40 -71 50 -67 q 60 -63 67 -52 q 75 -42 80 -24 q 86 -5 91 22 l 112 126 q 118 155 128 180 q 139 206 155 226 q 170 247 193 261 q 215 276 244 282 q 223 287 208 298 q 194 309 186 323 q 177 338 173 355 q 169 372 169 389 q 169 401 171 413 q 172 426 174 437 l 191 520 q 194 536 196 549 q 197 562 197 573 q 197 592 191 600 q 185 608 171 608 l 152 608 q 141 608 137 613 q 134 618 134 626 q 134 630 135 639 q 136 648 139 658 q 141 668 145 678 q 148 687 153 691 q 155 694 160 696 q 165 698 172 699 q 180 701 188 701 q 197 702 208 702 q 237 702 257 695 q 277 687 290 673 q 302 659 307 639 q 312 619 312 594 q 312 579 310 558 q 308 536 303 511 l 287 433 q 286 425 284 415 q 283 404 283 396 q 283 383 286 371 q 289 360 295 351 q 301 341 311 335 q 321 329 335 326 q 343 325 345 319 q 348 313 348 305 q 348 299 347 289 q 345 279 343 270 q 340 260 337 251 q 333 242 330 238 q 326 234 319 233 q 312 231 303 229 q 295 227 284 222 q 274 217 263 206 q 250 192 240 172 q 230 151 226 125 l 203 11 q 194 -34 181 -67 q 168 -100 149 -122 q 130 -144 103 -155 q 75 -166 37 -166 q 28 -166 20 -165 q 12 -164 5 -163 q -2 -162 -7 -160 q -13 -159 -15 -156 q -18 -154 -19 -149 q -20 -144 -20 -140 z"},"Z":{"x_min":0,"x_max":478,"ha":478,"o":"m 486 632 q 500 632 509 625 q 517 618 517 604 q 517 597 514 580 q 511 564 507 550 q 505 544 503 538 q 500 532 496 525 q 492 518 485 509 q 478 500 467 486 l 153 103 l 413 103 q 420 103 423 98 q 425 93 425 83 q 425 80 425 72 q 424 64 423 55 q 421 45 418 36 q 416 26 413 18 q 409 10 404 5 q 399 0 393 0 l 21 0 q 3 0 -5 9 q -13 18 -13 31 q -13 35 -12 42 q -12 49 -10 56 q -8 64 -7 72 q -5 79 -3 84 q -1 89 1 95 q 3 100 8 107 q 13 114 20 123 q 26 132 37 146 l 353 530 l 115 530 q 100 530 100 551 q 100 554 100 561 q 101 569 103 578 q 104 587 107 596 q 109 606 113 614 q 117 622 123 627 q 128 632 136 632 z"},"x":{"x_min":0,"x_max":459,"ha":459,"o":"m 322 242 l 400 25 q 403 17 401 12 q 400 6 392 3 q 385 0 371 -2 q 356 -3 334 -3 q 313 -3 302 -2 q 290 -1 284 1 q 277 3 275 6 q 273 10 272 14 l 219 168 l 109 14 q 106 9 102 6 q 99 3 90 1 q 82 -1 68 -2 q 54 -3 30 -3 q 9 -3 -3 -2 q -16 0 -22 3 q -28 6 -27 11 q -26 16 -21 24 l 145 241 l 72 442 q 69 451 70 457 q 71 462 77 466 q 84 469 98 470 q 112 472 135 472 q 155 472 166 471 q 178 470 184 469 q 190 467 192 464 q 194 461 196 456 l 247 311 l 352 456 q 354 460 358 463 q 361 466 369 468 q 376 470 388 471 q 399 472 419 472 q 442 472 455 471 q 469 470 475 467 q 481 464 481 459 q 480 454 474 445 z"},")":{"x_min":0,"x_max":312,"ha":312,"o":"m -26 -145 q 25 -62 61 20 q 97 102 119 180 q 142 258 152 331 q 162 403 162 465 q 162 488 161 514 q 159 540 156 566 q 154 593 150 618 q 146 643 141 665 q 139 672 140 678 q 141 684 146 688 q 152 692 163 694 q 174 695 194 695 q 208 695 217 695 q 226 694 231 692 q 237 690 240 688 q 243 685 244 682 q 261 625 271 562 q 282 500 282 428 q 282 367 272 300 q 263 233 241 160 q 218 87 181 8 q 143 -71 86 -155 q 83 -160 78 -163 q 74 -166 67 -168 q 60 -170 49 -171 q 38 -172 21 -172 q 2 -172 -8 -170 q -19 -168 -25 -165 q -30 -162 -30 -156 q -30 -151 -26 -145 z"},"&":{"x_min":0,"x_max":705,"ha":705,"o":"m 463 54 q 418 25 362 7 q 306 -12 240 -12 q 193 -12 154 -1 q 115 9 87 29 q 59 49 43 78 q 27 107 27 145 q 27 175 36 204 q 45 233 66 260 q 86 287 118 311 q 150 336 196 359 q 184 381 175 400 q 167 420 162 437 q 158 453 156 467 q 153 480 153 490 q 153 507 157 526 q 161 545 170 565 q 180 584 196 602 q 212 620 238 633 q 263 647 297 655 q 332 664 379 664 q 432 664 469 654 q 505 644 527 627 q 549 611 559 590 q 568 568 568 546 q 568 518 559 491 q 549 464 525 438 q 502 412 463 386 q 424 360 366 333 q 378 314 391 298 q 403 281 416 266 q 429 250 443 235 q 457 219 471 204 q 490 227 502 253 q 515 279 520 298 q 525 317 526 325 q 527 333 530 338 q 533 342 540 345 q 547 347 558 348 q 570 350 588 350 q 616 350 629 346 q 643 343 643 335 q 643 326 638 305 q 633 285 626 262 q 619 239 607 216 q 596 192 582 171 q 568 149 552 133 q 576 112 592 102 q 607 92 621 92 q 630 92 634 88 q 637 85 637 75 q 637 70 635 59 q 634 48 631 37 q 629 26 625 16 q 622 6 618 1 q 613 -3 603 -6 q 592 -10 580 -10 q 571 -10 559 -6 q 547 -2 533 5 q 519 13 501 25 q 484 37 463 54 z m 309 408 q 350 426 374 442 q 399 458 413 473 q 426 487 431 500 q 436 513 436 526 q 436 533 433 540 q 430 548 422 554 q 415 561 403 564 q 391 568 372 568 q 345 568 327 561 q 310 553 299 541 q 289 530 285 516 q 281 503 281 492 q 281 485 283 476 q 284 468 287 457 q 291 447 296 435 q 301 422 309 408 z m 251 277 q 229 265 211 251 q 194 237 183 223 q 172 208 167 192 q 161 176 161 159 q 161 146 166 133 q 171 120 183 110 q 195 100 214 94 q 233 87 261 87 q 276 87 292 90 q 308 93 323 98 q 339 103 353 109 q 367 116 378 124 q 360 142 344 160 q 327 179 311 198 q 295 216 280 236 q 265 256 251 277 z m 0 632 z"},"_":{"x_min":0,"x_max":498,"ha":498,"o":"m 432 -107 q 432 -110 431 -117 q 431 -124 429 -131 q 428 -139 425 -147 q 423 -156 419 -163 q 416 -169 411 -174 q 406 -178 400 -178 l -64 -178 q -72 -178 -75 -173 q -79 -167 -79 -159 q -79 -155 -78 -149 q -77 -143 -76 -135 q -74 -126 -72 -118 q -69 -110 -65 -103 q -62 -96 -57 -92 q -52 -87 -46 -87 l 417 -87 q 425 -87 429 -93 q 432 -98 432 -107 z"},"v":{"x_min":0,"x_max":469,"ha":469,"o":"m 487 456 q 487 450 485 442 q 484 435 481 426 q 463 373 441 320 q 419 267 393 215 q 366 164 336 114 q 305 64 270 18 q 265 11 258 7 q 251 2 241 0 q 231 -2 218 -2 q 205 -3 188 -3 q 161 -3 145 -2 q 129 0 121 2 q 113 5 110 10 q 107 16 106 23 l 55 415 q 55 423 54 430 q 54 437 54 442 q 54 452 56 457 q 58 462 65 466 q 71 469 84 470 q 96 472 117 472 q 137 472 148 471 q 159 470 165 467 q 171 465 173 461 q 175 457 176 451 l 213 131 l 213 119 l 215 123 q 240 161 260 199 q 281 237 298 277 q 315 317 331 360 q 346 403 360 451 q 362 457 366 461 q 370 465 378 467 q 386 470 398 471 q 411 472 429 472 q 447 472 459 471 q 470 470 476 468 q 482 466 485 463 q 487 460 487 456 z"},"O":{"x_min":0,"x_max":668,"ha":668,"o":"m 657 420 q 657 377 649 329 q 641 280 624 232 q 606 184 578 140 q 550 96 509 62 q 469 29 414 9 q 359 -11 290 -11 q 230 -11 185 2 q 140 15 109 42 q 78 70 62 111 q 46 153 46 209 q 46 255 54 305 q 62 355 80 403 q 98 451 127 495 q 156 538 196 571 q 237 604 291 624 q 345 643 414 643 q 473 643 518 630 q 563 616 594 589 q 625 561 641 519 q 657 477 657 420 z m 521 408 q 521 438 514 462 q 508 486 493 503 q 479 520 455 529 q 431 538 397 538 q 354 538 322 521 q 290 505 266 479 q 242 452 226 418 q 210 384 200 349 q 190 314 186 281 q 182 248 182 223 q 182 193 189 169 q 195 145 210 129 q 225 112 249 104 q 272 95 307 95 q 349 95 381 111 q 414 127 437 153 q 461 179 477 213 q 493 247 503 281 q 513 316 517 349 q 521 382 521 408 z"},"(":{"x_min":0,"x_max":312,"ha":312,"o":"m 352 668 q 300 586 264 504 q 229 421 206 343 q 184 265 174 193 q 164 120 164 58 q 164 35 165 9 q 166 -17 169 -43 q 171 -69 175 -95 q 179 -120 184 -142 q 186 -149 185 -155 q 184 -161 179 -165 q 174 -168 163 -170 q 151 -172 132 -172 q 118 -172 109 -171 q 100 -170 94 -169 q 88 -167 85 -164 q 83 -162 82 -158 q 64 -102 54 -39 q 43 24 43 95 q 43 156 53 223 q 62 290 84 363 q 107 436 145 515 q 183 594 240 679 q 243 683 247 686 q 251 689 258 691 q 265 693 276 694 q 288 695 305 695 q 322 695 333 694 q 344 692 350 688 q 355 685 356 680 q 356 674 352 668 z"},"C":{"x_min":0,"x_max":519,"ha":519,"o":"m 559 571 q 559 557 554 534 q 550 511 543 497 q 536 483 527 483 q 521 483 512 491 q 503 500 489 509 q 475 518 453 526 q 431 534 398 534 q 362 534 332 520 q 302 505 279 482 q 255 458 238 427 q 220 396 209 363 q 197 330 192 297 q 186 264 186 236 q 186 202 195 176 q 203 150 219 133 q 235 116 259 107 q 282 99 312 99 q 346 99 371 106 q 396 113 413 122 q 430 131 442 138 q 453 146 462 146 q 469 146 471 141 q 473 136 473 128 q 473 125 472 118 q 471 111 470 102 q 468 94 466 84 q 464 74 462 65 q 459 57 456 50 q 453 42 448 37 q 442 32 427 23 q 411 15 389 7 q 366 0 338 -5 q 310 -10 277 -10 q 224 -10 181 4 q 139 18 109 47 q 79 76 63 119 q 47 163 47 221 q 47 266 56 315 q 65 364 84 411 q 103 458 132 500 q 161 542 200 573 q 239 605 289 624 q 339 642 400 642 q 435 642 465 635 q 496 628 518 616 q 541 604 550 595 q 559 585 559 571 z"},"W":{"x_min":0,"x_max":907,"ha":907,"o":"m 694 32 q 689 20 683 13 q 677 6 666 2 q 655 -1 639 -2 q 623 -3 598 -3 q 571 -3 555 -2 q 539 -1 530 2 q 521 5 517 12 q 514 18 513 28 l 490 433 l 489 433 l 314 32 q 309 20 303 13 q 298 6 289 2 q 279 -1 263 -2 q 247 -3 222 -3 q 192 -3 175 -2 q 157 -1 148 2 q 138 6 135 13 q 132 21 131 33 l 97 589 q 97 604 98 614 q 99 623 106 628 q 113 632 126 634 q 140 635 164 635 q 184 635 198 634 q 211 632 218 629 q 225 626 226 621 q 228 615 228 606 l 241 125 l 242 125 l 455 606 q 459 615 464 621 q 468 626 477 630 q 485 633 498 634 q 512 635 534 635 q 557 635 570 634 q 583 633 590 630 q 597 626 599 621 q 601 615 601 605 l 625 125 l 626 125 l 834 612 q 836 619 841 623 q 845 628 853 630 q 861 633 875 634 q 888 635 910 635 q 931 635 943 633 q 955 631 959 626 q 963 621 960 610 q 958 600 950 583 z"},"A":{"x_min":0,"x_max":606,"ha":606,"o":"m 550 48 q 552 30 552 20 q 552 10 545 5 q 539 0 523 -2 q 508 -3 482 -3 q 463 -3 452 -2 q 440 -1 434 0 q 427 2 425 6 q 422 10 422 17 l 405 144 l 167 144 l 102 20 q 99 13 94 9 q 90 4 82 1 q 73 -1 59 -2 q 45 -3 24 -3 q 2 -3 -10 -1 q -23 0 -27 6 q -31 11 -28 21 q -25 32 -16 49 l 291 609 q 296 618 301 623 q 306 628 315 631 q 324 633 339 634 q 354 635 379 635 q 408 635 425 634 q 442 633 451 631 q 460 628 463 623 q 466 617 467 608 z m 358 511 l 357 511 l 216 243 l 394 243 z"},"f":{"x_min":0,"x_max":316,"ha":316,"o":"m 406 650 q 406 647 406 641 q 405 634 404 626 q 402 618 400 609 q 398 600 396 593 q 393 585 390 580 q 386 576 382 576 q 379 576 375 577 q 370 579 364 580 q 358 582 351 583 q 343 585 334 585 q 319 585 307 581 q 296 576 288 567 q 279 557 273 542 q 268 527 264 506 l 256 469 l 335 469 q 343 469 346 464 q 349 459 349 449 q 349 444 348 437 q 347 429 345 420 q 343 411 340 402 q 337 393 334 386 q 331 378 326 374 q 321 369 316 369 l 236 369 l 159 -14 q 151 -54 136 -85 q 122 -116 100 -136 q 78 -157 48 -168 q 18 -178 -20 -178 q -45 -178 -62 -174 q -80 -170 -84 -167 q -87 -164 -88 -160 q -89 -157 -89 -150 q -89 -147 -88 -141 q -87 -134 -86 -126 q -84 -118 -82 -109 q -80 -100 -77 -93 q -75 -85 -71 -81 q -68 -76 -63 -76 q -61 -76 -58 -77 q -55 -77 -51 -78 q -48 -79 -43 -79 q -39 -80 -31 -80 q -16 -80 -4 -75 q 7 -70 16 -61 q 24 -51 30 -35 q 36 -20 40 2 l 114 369 l 59 369 q 53 369 50 373 q 47 377 47 389 q 47 394 48 402 q 48 410 50 418 q 52 427 54 436 q 57 445 61 452 q 64 459 69 464 q 74 469 80 469 l 134 469 l 143 517 q 151 558 166 589 q 181 621 203 642 q 226 663 256 673 q 286 684 324 684 q 336 684 349 682 q 362 681 372 679 q 382 677 390 674 q 398 671 401 668 q 404 666 405 661 q 406 657 406 650 z"},"Q":{"x_min":0,"x_max":677,"ha":677,"o":"m 637 -26 q 637 -30 636 -39 q 635 -47 633 -57 q 631 -66 628 -76 q 625 -86 621 -94 q 617 -103 613 -108 q 608 -113 602 -113 q 597 -113 586 -110 q 575 -107 560 -101 q 545 -95 527 -85 q 508 -76 489 -62 q 470 -47 451 -29 q 432 -11 416 13 q 390 1 359 -5 q 328 -11 290 -11 q 230 -11 185 2 q 140 15 109 42 q 78 70 62 111 q 46 153 46 209 q 46 255 54 305 q 62 355 80 403 q 98 451 127 495 q 155 538 196 571 q 237 604 291 624 q 345 643 414 643 q 473 643 518 630 q 563 616 594 589 q 625 561 641 519 q 657 477 657 420 q 657 393 654 362 q 650 331 644 300 q 637 269 626 237 q 615 206 599 176 q 584 146 563 118 q 542 91 516 67 q 539 43 559 30 q 578 17 593 10 q 608 2 618 -1 q 628 -5 631 -8 q 635 -12 636 -15 q 637 -19 637 -26 z m 521 408 q 521 438 514 462 q 508 486 493 503 q 479 520 455 529 q 431 538 397 538 q 354 538 322 521 q 290 505 266 479 q 242 452 226 418 q 210 384 200 349 q 190 314 186 281 q 182 248 182 223 q 182 193 189 169 q 195 145 210 129 q 225 112 249 104 q 272 95 307 95 q 349 95 381 111 q 413 127 437 153 q 460 179 477 213 q 493 247 503 281 q 513 316 517 349 q 521 382 521 408 z"},"w":{"x_min":0,"x_max":745,"ha":745,"o":"m 761 456 q 761 448 759 440 q 757 432 755 426 q 737 373 715 320 q 693 267 668 215 q 642 164 613 114 q 583 64 550 18 q 546 11 539 7 q 532 2 522 0 q 512 -2 499 -2 q 486 -3 470 -3 q 449 -3 436 -2 q 423 0 416 2 q 409 5 406 10 q 403 16 403 23 l 380 292 l 260 24 q 256 16 252 11 q 247 5 238 2 q 229 0 214 -2 q 199 -3 175 -3 q 152 -3 137 -2 q 122 0 114 2 q 106 5 103 10 q 100 16 99 23 l 62 417 q 61 422 61 429 q 61 435 61 440 q 61 449 62 455 q 64 461 71 465 q 78 468 91 470 q 104 472 126 472 q 146 472 157 471 q 168 470 174 467 q 180 465 182 461 q 184 457 184 451 l 205 130 l 205 125 l 208 130 l 351 451 q 354 457 357 461 q 361 465 368 467 q 375 470 386 471 q 398 472 415 472 q 433 472 444 470 q 456 469 462 467 q 468 465 471 461 q 473 458 474 453 l 499 131 l 500 126 l 502 131 q 521 163 539 201 q 557 239 575 280 q 592 322 608 365 q 624 409 636 451 q 637 457 641 461 q 645 465 653 467 q 661 470 673 471 q 685 472 704 472 q 722 472 733 471 q 745 470 751 468 q 757 466 759 463 q 761 460 761 456 z"},"-":{"x_min":0,"x_max":306,"ha":306,"o":"m 285 274 q 285 271 284 263 q 283 256 281 247 q 279 238 276 229 q 273 220 270 212 q 266 205 260 200 q 255 195 248 195 l 45 195 q 36 195 32 200 q 29 205 29 217 q 29 221 29 229 q 30 236 31 245 q 33 253 36 262 q 39 271 43 279 q 47 287 52 291 q 58 295 65 295 l 268 295 q 277 295 281 290 q 285 284 285 274 z"},"E":{"x_min":0,"x_max":488,"ha":488,"o":"m 516 613 q 516 610 515 603 q 514 596 513 587 q 511 578 509 568 q 506 558 503 550 q 499 542 494 537 q 489 531 483 531 l 257 531 l 226 377 l 417 377 q 424 377 427 372 q 430 367 430 358 q 430 355 429 348 q 429 341 427 332 q 426 323 423 313 q 421 304 417 296 q 414 289 409 284 q 404 279 398 279 l 207 279 l 171 101 l 399 101 q 405 101 408 95 q 411 90 411 81 q 411 77 411 70 q 410 62 408 53 q 407 44 404 35 q 402 26 398 18 q 395 10 390 5 q 385 0 378 0 l 61 0 q 53 0 47 2 q 41 4 36 10 q 32 15 31 22 q 29 30 31 41 l 142 591 q 146 613 159 622 q 172 632 188 632 l 503 632 q 516 632 516 613 z"},"s":{"x_min":0,"x_max":394,"ha":394,"o":"m 378 433 q 378 427 377 416 q 375 404 372 393 q 368 381 364 372 q 359 364 353 364 q 347 364 338 368 q 330 373 317 379 q 305 384 289 389 q 272 393 250 393 q 233 393 220 389 q 207 384 198 377 q 189 369 184 359 q 180 349 180 337 q 180 322 192 312 q 205 301 223 292 q 242 283 263 273 q 285 264 303 249 q 322 234 334 213 q 346 192 346 161 q 346 124 332 92 q 318 61 291 38 q 264 15 225 2 q 186 -11 137 -11 q 114 -11 93 -8 q 71 -4 54 0 q 38 5 26 12 q 14 18 8 23 q 4 27 3 32 q 1 36 1 43 q 1 47 2 54 q 2 61 4 69 q 6 78 8 86 q 10 94 13 101 q 16 108 20 112 q 23 116 27 116 q 34 116 42 110 q 50 104 63 97 q 77 90 96 84 q 115 78 144 78 q 164 78 179 83 q 194 87 204 96 q 213 104 218 115 q 223 125 223 138 q 223 155 211 166 q 199 176 181 186 q 163 195 141 205 q 120 214 102 229 q 84 243 72 264 q 60 285 60 316 q 60 351 73 381 q 86 411 112 433 q 137 455 173 468 q 209 480 255 480 q 276 480 295 477 q 314 475 330 470 q 345 466 357 460 q 368 455 373 450 q 378 445 378 433 z"},">":{"x_min":0,"x_max":498,"ha":498,"o":"m 18 59 q 18 72 21 87 q 23 103 29 116 q 34 130 41 141 q 48 152 56 155 l 360 284 l 110 414 q 95 421 95 438 q 95 445 96 455 q 97 464 99 475 q 101 485 104 495 q 107 505 111 512 q 115 520 120 523 q 125 526 132 522 l 468 336 q 473 333 476 328 q 479 323 479 312 q 479 304 477 291 q 475 277 471 264 q 467 251 461 241 q 455 230 447 227 l 40 42 q 28 37 23 42 q 18 46 18 59 z"},"l":{"x_min":0,"x_max":246,"ha":246,"o":"m 142 17 q 141 12 137 8 q 134 4 126 2 q 119 0 107 -2 q 95 -3 77 -3 q 59 -3 47 -2 q 36 0 29 2 q 23 4 21 8 q 19 12 20 17 l 148 659 q 149 664 152 667 q 156 671 164 674 q 171 677 183 678 q 195 680 213 680 q 231 680 243 678 q 254 677 261 674 q 267 671 269 667 q 271 664 270 659 z"},"8":{"x_min":0,"x_max":507,"ha":507,"o":"m 467 188 q 467 170 462 148 q 458 126 446 104 q 435 82 416 61 q 396 41 368 24 q 339 8 299 -2 q 259 -11 207 -11 q 158 -11 121 -1 q 85 9 61 28 q 37 46 25 72 q 13 98 13 129 q 13 161 24 188 q 35 216 56 240 q 77 265 107 286 q 137 307 175 325 q 133 350 115 381 q 96 413 96 450 q 96 471 101 494 q 107 517 119 538 q 131 559 150 578 q 168 598 195 612 q 222 626 256 635 q 291 643 335 643 q 387 643 422 631 q 456 620 476 601 q 496 583 504 560 q 512 537 512 514 q 512 481 501 454 q 491 426 471 403 q 452 380 426 361 q 400 342 371 328 q 396 312 415 296 q 433 280 444 263 q 456 246 461 227 q 467 208 467 188 z m 387 497 q 387 506 384 516 q 380 525 373 533 q 365 541 352 545 q 338 549 319 549 q 292 549 273 541 q 254 533 242 520 q 230 507 225 491 q 220 475 220 460 q 220 449 222 439 q 224 429 231 419 q 238 409 250 399 q 262 390 282 378 q 308 390 328 403 q 347 416 360 431 q 374 446 380 462 q 387 478 387 497 z m 338 180 q 338 191 334 203 q 331 214 322 225 q 313 236 299 248 q 284 259 263 272 q 227 255 204 240 q 180 225 167 209 q 153 193 147 177 q 141 161 141 143 q 141 131 145 120 q 149 109 159 101 q 168 93 184 88 q 200 83 224 83 q 254 83 275 91 q 297 99 311 113 q 325 126 331 143 q 338 161 338 180 z"},"\\":{"x_min":0,"x_max":425,"ha":425,"o":"m 352 -106 q 354 -119 353 -126 q 352 -134 346 -137 q 340 -141 328 -142 q 316 -143 295 -143 q 275 -143 264 -142 q 252 -141 246 -139 q 240 -137 238 -134 q 235 -130 235 -125 l 109 682 q 107 694 108 702 q 109 709 115 712 q 121 716 133 717 q 146 718 167 718 q 186 718 198 717 q 209 716 215 714 q 221 712 223 709 q 225 705 226 700 z"},"e":{"x_min":0,"x_max":491,"ha":491,"o":"m 473 356 q 473 321 457 293 q 441 265 408 245 q 375 225 323 214 q 271 203 200 203 l 155 203 q 153 192 152 181 q 151 170 151 161 q 151 121 172 101 q 192 81 238 81 q 270 81 296 86 q 321 90 341 96 q 360 102 373 106 q 385 111 391 111 q 397 111 399 107 q 402 104 402 97 q 402 88 400 78 q 399 67 396 56 q 394 46 389 37 q 385 27 380 22 q 374 17 358 11 q 343 5 321 0 q 299 -5 271 -8 q 244 -11 216 -11 q 169 -11 134 -1 q 99 8 76 28 q 52 48 41 79 q 29 110 29 153 q 29 186 35 223 q 41 260 55 297 q 68 333 90 366 q 111 399 142 425 q 172 450 212 465 q 252 480 304 480 q 348 480 380 469 q 412 459 433 442 q 453 424 463 402 q 473 380 473 356 z m 353 347 q 353 367 337 380 q 322 393 292 393 q 268 393 249 384 q 229 375 215 360 q 200 345 190 325 q 179 305 173 282 l 214 282 q 253 282 279 287 q 306 292 322 301 q 338 310 345 322 q 353 333 353 347 z"},"b":{"x_min":0,"x_max":528,"ha":528,"o":"m 500 314 q 500 282 494 245 q 488 208 476 172 q 464 136 445 103 q 426 70 399 44 q 372 19 338 4 q 303 -11 261 -11 q 220 -11 188 5 q 157 21 134 54 l 126 17 q 125 6 111 2 q 98 -3 68 -3 q 39 -3 28 2 q 18 7 20 17 l 148 659 q 149 664 152 667 q 156 671 164 674 q 171 677 183 678 q 195 680 213 680 q 231 680 243 678 q 254 677 260 674 q 267 671 269 667 q 271 664 270 659 l 235 484 q 233 473 230 460 q 227 448 223 436 q 220 423 216 412 q 212 400 209 392 q 218 407 234 423 q 250 439 271 452 q 292 464 317 472 q 341 480 365 480 q 393 480 414 473 q 434 466 449 454 q 464 441 474 425 q 484 408 490 390 q 496 372 498 352 q 500 333 500 314 z m 374 302 q 374 314 372 327 q 370 340 365 351 q 359 362 349 369 q 339 375 323 375 q 301 375 279 363 q 257 350 237 327 q 218 305 203 275 q 188 245 181 211 l 167 146 q 185 119 205 106 q 226 93 253 93 q 273 93 290 102 q 306 112 320 127 q 333 143 343 164 q 353 185 360 208 q 367 231 370 255 q 374 279 374 302 z"},"%":{"x_min":0,"x_max":729,"ha":729,"o":""},"m":{"x_min":0,"x_max":804,"ha":804,"o":"m 703 17 q 702 12 698 8 q 694 4 687 2 q 679 0 667 -2 q 655 -3 637 -3 q 619 -3 607 -2 q 596 0 589 2 q 583 4 581 8 q 579 12 580 17 l 632 278 q 634 289 636 300 q 637 311 637 322 q 637 345 629 359 q 620 374 598 374 q 579 374 558 361 q 537 348 517 326 q 498 305 483 276 q 468 247 462 214 l 422 17 q 421 12 418 8 q 414 4 406 2 q 398 0 386 -2 q 375 -3 356 -3 q 339 -3 327 -2 q 316 0 310 2 q 303 4 301 8 q 299 12 300 17 l 352 278 q 354 289 356 301 q 357 313 357 324 q 357 346 348 360 q 339 374 318 374 q 298 374 277 361 q 256 348 237 326 q 218 305 203 276 q 188 247 182 214 l 142 17 q 141 12 137 8 q 134 4 126 2 q 119 0 106 -2 q 94 -3 77 -3 q 59 -3 47 -2 q 36 0 29 2 q 22 4 21 8 q 19 12 20 17 l 107 453 q 108 458 111 461 q 114 465 121 467 q 127 469 138 470 q 148 472 163 472 q 178 472 188 470 q 197 469 203 467 q 208 465 210 461 q 211 458 210 453 l 196 381 q 207 398 224 416 q 241 434 262 448 q 284 462 310 471 q 335 480 363 480 q 391 480 412 472 q 433 465 446 451 q 459 438 467 420 q 474 402 476 381 q 487 398 504 416 q 521 434 543 448 q 565 462 590 471 q 616 480 643 480 q 677 480 700 470 q 723 461 737 444 q 751 427 758 405 q 764 382 764 355 q 764 338 762 321 q 760 304 756 286 z"},"#":{"x_min":0,"x_max":498,"ha":498,"o":"m 527 455 q 527 450 526 439 q 524 429 520 418 q 517 407 511 398 q 505 390 496 390 l 442 390 l 397 251 l 445 251 q 452 251 455 247 q 458 242 458 232 q 458 227 456 216 q 455 205 451 194 q 447 184 441 176 q 436 167 427 167 l 370 167 l 321 15 q 318 5 306 1 q 293 -3 265 -3 q 250 -3 241 -2 q 232 -1 228 1 q 224 4 223 7 q 222 10 224 15 l 273 167 l 164 167 l 115 15 q 113 10 110 7 q 107 3 101 1 q 94 -1 85 -2 q 75 -3 61 -3 q 46 -3 37 -2 q 27 -1 23 1 q 19 4 18 7 q 17 10 18 15 l 67 167 l 21 167 q 7 167 7 188 q 7 194 9 205 q 10 215 14 226 q 18 236 23 244 q 28 251 37 251 l 94 251 l 139 390 l 90 390 q 83 390 80 395 q 77 400 77 412 q 77 419 79 429 q 81 440 84 450 q 88 460 93 467 q 99 474 106 474 l 165 474 l 210 617 q 212 622 216 625 q 219 628 226 631 q 233 633 243 634 q 253 635 267 635 q 282 635 291 634 q 300 632 304 630 q 308 627 309 624 q 309 621 308 617 l 262 474 l 371 474 l 417 617 q 418 626 431 630 q 443 635 472 635 q 486 635 495 634 q 504 632 509 630 q 513 627 514 624 q 515 621 514 617 l 468 474 l 514 474 q 521 474 524 469 q 527 464 527 455 z m 235 390 l 190 251 l 300 251 l 345 390 z"},",":{"x_min":0,"x_max":258,"ha":258,"o":"m 180 108 q 180 72 165 36 q 150 0 122 -31 l 38 -125 q 29 -134 15 -138 q 1 -143 -23 -143 q -37 -143 -46 -141 q -54 -140 -58 -137 q -61 -134 -60 -129 q -59 -125 -55 -117 l 31 18 l 45 90 q 49 106 54 117 q 60 127 68 132 q 77 138 89 139 q 102 141 121 141 q 138 141 150 139 q 162 138 168 134 q 175 129 177 123 q 180 117 180 108 z"},"n":{"x_min":0,"x_max":527,"ha":527,"o":"m 488 355 q 488 338 486 321 q 483 304 480 286 l 426 17 q 425 12 421 8 q 417 4 410 2 q 402 0 390 -2 q 378 -3 360 -3 q 342 -3 331 -2 q 319 0 313 2 q 307 4 304 8 q 302 12 303 17 l 356 278 q 358 290 360 302 q 361 314 361 323 q 361 345 352 359 q 342 374 320 374 q 300 374 279 361 q 257 348 238 326 q 218 305 203 276 q 188 247 182 214 l 142 17 q 141 12 137 8 q 134 4 126 2 q 119 0 106 -2 q 94 -3 77 -3 q 59 -3 47 -2 q 36 0 29 2 q 22 4 21 8 q 19 12 20 17 l 107 453 q 108 458 111 461 q 114 465 121 467 q 127 469 138 470 q 148 472 163 472 q 178 472 188 470 q 197 469 203 467 q 208 465 210 461 q 211 458 210 453 l 196 381 q 207 398 224 416 q 241 434 263 448 q 285 462 311 471 q 337 480 366 480 q 400 480 423 470 q 446 460 461 443 q 475 426 481 403 q 488 380 488 355 z"},"h":{"x_min":0,"x_max":527,"ha":527,"o":"m 426 17 q 425 12 422 8 q 418 4 410 2 q 403 0 391 -2 q 379 -3 360 -3 q 343 -3 331 -2 q 320 0 313 2 q 307 4 305 8 q 303 12 304 17 l 356 278 q 358 288 359 301 q 361 314 361 324 q 361 335 359 344 q 356 353 352 360 q 347 366 339 370 q 331 374 320 374 q 300 374 279 361 q 257 348 238 326 q 218 304 203 275 q 188 246 182 213 l 142 17 q 141 12 137 8 q 134 4 126 2 q 119 0 106 -2 q 94 -3 77 -3 q 59 -3 47 -2 q 36 0 29 2 q 22 4 21 8 q 19 12 20 17 l 148 659 q 149 664 152 667 q 156 671 164 674 q 171 677 183 678 q 195 680 213 680 q 231 680 243 678 q 254 677 261 674 q 267 671 269 667 q 271 664 270 659 l 235 482 q 233 471 230 459 q 227 447 223 435 q 220 423 216 412 q 212 400 209 392 q 218 407 234 423 q 250 438 271 451 q 292 464 316 472 q 340 480 366 480 q 399 480 422 471 q 445 461 459 445 q 474 428 481 405 q 487 382 487 355 q 487 337 485 320 q 483 303 480 286 z"},"z":{"x_min":0,"x_max":397,"ha":397,"o":"m 396 451 q 396 448 396 440 q 395 433 393 425 q 392 417 390 409 q 388 401 387 396 q 384 384 377 374 q 371 363 360 350 l 154 99 l 320 99 q 327 99 330 94 q 333 89 333 78 q 333 74 333 67 q 332 59 330 50 q 329 42 326 33 q 323 24 320 17 q 316 9 311 5 q 306 0 300 0 l 13 0 q 3 0 -1 6 q -6 11 -6 23 q -6 27 -5 33 q -4 40 -3 47 q -1 54 0 61 q 1 67 3 71 q 4 77 6 82 q 8 86 11 92 q 14 97 19 104 q 23 110 31 118 l 239 370 l 90 370 q 83 370 80 375 q 76 380 76 392 q 76 397 77 405 q 78 412 79 420 q 81 429 84 438 q 86 446 90 453 q 94 460 99 464 q 104 469 110 469 l 379 469 q 389 469 393 464 q 396 459 396 451 z"},"B":{"x_min":0,"x_max":561,"ha":561,"o":"m 541 503 q 541 474 532 448 q 524 423 509 402 q 494 380 472 364 q 450 348 423 338 q 445 334 463 324 q 481 314 494 299 q 507 284 514 263 q 521 243 521 217 q 521 193 515 168 q 508 143 495 119 q 481 95 459 73 q 437 52 406 35 q 375 19 334 10 q 294 0 240 0 l 65 0 q 45 0 36 10 q 27 20 31 41 l 142 591 q 146 613 159 622 q 172 632 190 632 l 342 632 q 392 632 429 624 q 465 616 490 600 q 515 584 528 560 q 541 536 541 503 z m 408 479 q 408 493 403 503 q 398 513 389 521 q 379 528 364 532 q 349 536 326 536 l 256 536 l 223 372 l 295 372 q 327 372 348 382 q 369 392 383 407 q 396 423 402 442 q 408 461 408 479 z m 387 210 q 387 242 364 260 q 340 278 290 278 l 204 278 l 168 98 l 259 98 q 294 98 318 108 q 341 118 357 133 q 372 149 379 169 q 387 189 387 210 z"},"K":{"x_min":0,"x_max":547,"ha":547,"o":"m 597 614 q 597 605 591 596 q 584 586 570 570 l 347 333 l 479 52 q 483 42 485 35 q 487 28 487 22 q 487 15 484 10 q 481 6 473 3 q 465 0 452 -1 q 438 -3 418 -3 q 397 -3 385 -2 q 372 0 365 2 q 357 4 354 9 q 351 13 349 19 l 215 318 l 156 18 q 155 12 151 9 q 147 5 139 2 q 131 0 118 -2 q 106 -3 87 -3 q 68 -3 56 -2 q 44 0 38 2 q 31 5 28 9 q 26 12 27 18 l 146 615 q 147 620 151 624 q 155 627 163 630 q 171 632 183 634 q 196 635 215 635 q 233 635 245 634 q 257 632 264 630 q 271 627 273 624 q 276 620 275 615 l 221 345 l 456 613 q 460 619 466 623 q 472 627 480 630 q 489 632 502 634 q 515 635 534 635 q 553 635 566 634 q 578 632 585 630 q 592 627 594 623 q 597 620 597 614 z"},"R":{"x_min":0,"x_max":563,"ha":563,"o":"m 554 494 q 554 463 546 432 q 537 401 519 374 q 500 347 470 325 q 441 303 398 290 q 422 280 438 253 q 454 225 464 177 l 490 49 q 492 38 493 30 q 494 21 494 15 q 494 10 491 7 q 488 3 479 1 q 471 -1 457 -2 q 442 -3 420 -3 q 400 -3 387 -2 q 375 0 368 2 q 361 5 359 9 q 357 14 356 20 l 332 160 q 328 184 321 203 q 314 221 304 234 q 294 246 279 252 q 264 258 244 258 l 204 258 l 155 17 q 154 12 150 8 q 146 4 138 2 q 130 0 118 -2 q 105 -3 86 -3 q 68 -3 56 -2 q 44 0 37 2 q 30 4 28 8 q 25 12 27 17 l 142 591 q 146 613 159 622 q 173 632 190 632 l 360 632 q 404 632 440 624 q 476 615 501 598 q 527 581 541 555 q 554 529 554 494 z m 417 470 q 417 484 412 496 q 407 507 397 516 q 387 524 370 529 q 354 534 331 534 l 258 534 l 223 354 l 284 354 q 320 354 346 365 q 371 375 387 392 q 402 409 409 429 q 417 449 417 470 z"},"T":{"x_min":0,"x_max":495,"ha":495,"o":"m 564 611 q 564 608 563 600 q 562 593 561 583 q 559 574 556 564 q 554 554 550 546 q 546 538 541 532 q 536 527 530 527 l 372 527 l 270 18 q 269 13 265 9 q 261 5 253 2 q 245 0 232 -1 q 220 -3 201 -3 q 182 -3 170 -1 q 158 0 151 2 q 145 5 142 9 q 140 13 141 18 l 243 527 l 85 527 q 78 527 75 532 q 73 538 73 547 q 73 551 73 558 q 74 566 76 575 q 78 585 80 595 q 83 605 87 613 q 91 622 96 627 q 101 632 106 632 l 552 632 q 558 632 561 626 q 564 621 564 611 z"},"P":{"x_min":0,"x_max":532,"ha":532,"o":"m 547 477 q 547 450 541 420 q 535 390 521 362 q 507 333 486 307 q 464 282 432 262 q 401 242 359 231 q 318 219 262 219 l 196 219 l 155 17 q 154 12 150 8 q 146 4 138 2 q 130 0 117 -2 q 104 -3 86 -3 q 68 -3 56 -2 q 44 0 37 2 q 30 4 28 8 q 25 12 27 17 l 141 586 q 145 609 160 620 q 174 632 196 632 l 334 632 q 359 632 379 630 q 399 628 419 625 q 449 619 472 606 q 496 594 513 576 q 529 558 538 533 q 547 508 547 477 z m 412 462 q 412 486 400 503 q 389 520 366 527 q 355 530 343 531 q 330 533 314 533 l 258 533 l 216 318 l 274 318 q 302 318 322 325 q 342 332 357 342 q 372 353 382 368 q 393 382 399 398 q 406 415 409 431 q 412 447 412 462 z"},"|":{"x_min":0,"x_max":475,"ha":475,"o":"m 218 -158 q 217 -163 213 -167 q 209 -170 202 -173 q 195 -176 184 -177 q 172 -178 156 -178 q 139 -178 128 -177 q 117 -176 111 -173 q 105 -170 103 -167 q 101 -163 103 -158 l 271 685 q 272 690 276 694 q 279 698 287 700 q 294 703 305 705 q 316 706 333 706 q 350 706 361 705 q 372 703 378 700 q 384 698 386 694 q 388 690 387 685 z"},"t":{"x_min":0,"x_max":347,"ha":347,"o":"m 362 448 q 362 443 361 435 q 360 428 358 419 q 356 410 354 401 q 351 393 347 385 q 343 378 339 374 q 334 369 329 369 l 233 369 l 192 165 q 191 157 190 147 q 188 137 188 131 q 188 111 198 102 q 207 93 227 93 q 239 93 247 95 q 255 97 261 99 q 268 101 272 103 q 276 104 280 104 q 284 104 287 101 q 290 97 290 89 q 290 80 288 68 q 286 56 282 45 q 279 34 275 25 q 271 16 267 12 q 263 7 254 3 q 245 0 233 -3 q 221 -6 208 -8 q 194 -10 180 -10 q 151 -10 129 -4 q 106 2 91 16 q 76 29 69 49 q 61 70 61 99 q 61 104 62 112 q 62 119 63 126 q 64 134 66 142 q 67 150 68 157 l 111 369 l 58 369 q 52 369 49 373 q 46 377 46 389 q 46 397 48 411 q 49 424 53 437 q 57 450 63 459 q 70 469 79 469 l 131 469 l 150 566 q 151 571 155 575 q 159 579 166 581 q 174 584 186 585 q 198 586 216 586 q 233 586 245 585 q 257 584 263 581 q 270 579 272 575 q 274 571 273 566 l 253 469 l 348 469 q 356 469 359 463 q 362 458 362 448 z"},"M":{"x_min":0,"x_max":874,"ha":874,"o":"m 763 17 q 762 12 759 8 q 756 4 749 2 q 742 0 729 -2 q 717 -3 699 -3 q 680 -3 668 -2 q 657 0 650 2 q 644 4 642 8 q 641 12 642 17 l 744 531 l 743 531 l 457 18 q 451 5 434 1 q 417 -3 386 -3 q 354 -3 341 3 q 327 8 326 17 l 252 532 l 251 532 l 148 17 q 147 12 144 8 q 141 4 134 2 q 126 0 115 -2 q 103 -3 84 -3 q 65 -3 54 -2 q 42 0 36 2 q 29 4 27 8 q 25 12 27 17 l 139 580 q 142 592 147 602 q 152 612 159 618 q 167 625 177 628 q 187 632 198 632 l 278 632 q 299 632 314 628 q 330 625 339 616 q 349 607 354 593 q 359 579 361 559 l 422 183 l 425 183 l 642 559 q 651 578 661 592 q 671 605 683 615 q 695 624 709 628 q 724 632 744 632 l 835 632 q 847 632 856 628 q 865 625 870 618 q 875 612 876 602 q 877 593 875 581 z"},"g":{"x_min":0,"x_max":528,"ha":528,"o":"m 420 -1 q 411 -45 393 -78 q 374 -111 344 -134 q 313 -156 270 -167 q 227 -178 169 -178 q 128 -178 95 -172 q 62 -165 40 -155 q 32 -151 29 -146 q 26 -141 26 -132 q 26 -129 27 -123 q 27 -116 29 -107 q 31 -99 33 -90 q 36 -81 39 -74 q 43 -67 47 -62 q 52 -58 58 -58 q 63 -58 72 -62 q 81 -66 95 -71 q 109 -76 130 -80 q 151 -84 182 -84 q 207 -84 226 -80 q 246 -76 261 -67 q 275 -59 284 -45 q 293 -31 297 -11 q 304 21 310 42 q 316 63 322 77 q 313 61 297 45 q 280 29 259 17 q 238 4 214 -4 q 190 -11 166 -11 q 128 -11 102 1 q 77 14 61 37 q 44 59 37 89 q 30 120 30 155 q 30 187 36 223 q 42 260 54 296 q 67 332 86 365 q 105 398 132 424 q 158 450 193 465 q 227 480 270 480 q 311 480 342 463 q 373 446 396 414 l 404 453 q 406 463 420 467 q 433 472 463 472 q 478 472 487 470 q 497 469 503 467 q 508 465 510 461 q 512 458 511 453 z m 363 322 q 346 349 325 363 q 305 376 277 376 q 257 376 240 366 q 223 356 210 340 q 196 324 186 302 q 176 281 170 257 q 163 234 160 210 q 157 187 157 166 q 157 149 160 136 q 163 122 169 113 q 175 103 184 98 q 194 93 208 93 q 229 93 251 106 q 274 119 293 141 q 313 163 328 193 q 343 223 350 256 z"},"j":{"x_min":0,"x_max":255,"ha":255,"o":"m 278 599 q 274 581 268 568 q 262 556 253 548 q 243 541 229 537 q 215 534 194 534 q 173 534 160 537 q 147 541 141 548 q 134 556 133 568 q 132 581 136 599 q 140 616 145 628 q 151 641 161 648 q 171 656 185 660 q 199 663 220 663 q 240 663 253 660 q 267 656 273 648 q 280 641 281 628 q 281 616 278 599 z m 146 -6 q 138 -48 125 -80 q 111 -112 91 -134 q 70 -156 41 -167 q 12 -178 -26 -178 q -50 -178 -67 -175 q -83 -171 -87 -167 q -89 -165 -90 -161 q -91 -158 -91 -151 q -91 -147 -91 -140 q -90 -133 -88 -125 q -87 -116 -84 -107 q -82 -98 -79 -91 q -76 -83 -73 -79 q -69 -74 -64 -74 q -62 -74 -59 -75 q -57 -75 -54 -75 q -51 -76 -47 -76 q -43 -77 -38 -77 q -26 -77 -16 -73 q -6 -69 2 -60 q 9 -52 15 -38 q 21 -23 25 -2 l 116 451 q 117 456 120 460 q 124 463 132 466 q 139 469 151 470 q 164 472 181 472 q 199 472 210 470 q 222 469 229 466 q 235 463 237 460 q 239 456 238 451 z"},"i":{"x_min":0,"x_max":246,"ha":246,"o":"m 268 599 q 265 581 259 568 q 253 556 243 548 q 233 541 219 537 q 205 534 184 534 q 164 534 151 537 q 138 541 131 548 q 125 556 124 568 q 123 581 126 599 q 130 616 136 628 q 142 641 151 648 q 161 656 175 660 q 189 663 210 663 q 231 663 244 660 q 257 656 263 648 q 270 641 271 628 q 271 616 268 599 z m 142 17 q 141 12 137 8 q 134 4 126 2 q 119 0 106 -2 q 94 -3 77 -3 q 59 -3 47 -2 q 36 0 29 2 q 22 4 21 8 q 19 12 20 17 l 106 451 q 107 456 111 460 q 114 463 122 466 q 129 469 141 470 q 153 472 171 472 q 189 472 201 470 q 212 469 219 466 q 226 463 228 460 q 229 456 229 451 z"},"y":{"x_min":0,"x_max":470,"ha":470,"o":"m 487 454 q 487 447 486 439 q 484 432 481 423 q 465 378 446 331 q 426 283 401 232 q 376 181 345 127 q 313 73 272 15 l 153 -154 q 148 -161 142 -165 q 135 -169 125 -172 q 115 -174 101 -176 q 87 -177 68 -177 q 47 -177 34 -176 q 21 -174 16 -170 q 10 -166 10 -160 q 11 -154 17 -146 l 128 0 l 56 419 q 55 425 54 432 q 53 439 53 444 q 53 453 56 458 q 60 463 67 466 q 75 469 87 470 q 100 472 118 472 q 138 472 150 471 q 161 470 167 468 q 173 465 175 460 q 177 456 178 448 l 223 143 l 224 143 q 249 180 269 217 q 289 255 305 294 q 322 333 336 372 q 350 412 361 453 q 362 458 366 461 q 369 465 377 467 q 385 469 398 470 q 412 472 433 472 q 464 472 476 468 q 487 464 487 454 z"},"@":{"x_min":0,"x_max":898,"ha":898,"o":"m 857 414 q 857 385 852 349 q 847 313 835 275 q 824 237 805 201 q 786 165 758 137 q 730 108 694 91 q 657 74 609 74 q 584 74 565 80 q 546 86 532 97 q 519 108 512 124 q 504 139 504 159 q 489 138 470 122 q 451 106 430 95 q 410 84 388 79 q 367 74 348 74 q 325 74 308 79 q 291 84 279 93 q 267 102 260 114 q 252 125 248 138 q 244 151 243 165 q 241 178 241 190 q 241 215 247 246 q 252 276 263 308 q 275 340 292 370 q 310 400 335 424 q 359 448 391 463 q 422 477 461 477 q 478 477 492 474 q 506 470 518 463 q 531 455 542 443 q 554 431 565 414 l 577 453 q 580 461 590 466 q 600 470 625 470 q 651 470 660 466 q 668 461 666 453 l 599 242 q 586 201 593 183 q 599 164 625 164 q 645 164 662 176 q 679 188 693 208 q 707 228 717 253 q 728 278 734 304 q 741 331 745 357 q 748 383 748 405 q 748 438 738 467 q 728 495 703 517 q 679 538 637 550 q 595 562 531 562 q 470 562 421 548 q 372 534 334 510 q 297 486 270 454 q 242 422 223 387 q 204 353 192 317 q 180 281 173 248 q 167 215 164 188 q 162 162 162 145 q 162 121 166 98 q 169 75 179 56 q 188 36 204 20 q 220 4 245 -8 q 270 -20 305 -26 q 339 -32 386 -32 q 425 -32 457 -28 q 488 -23 511 -18 q 534 -13 548 -9 q 562 -4 568 -4 q 576 -4 578 -9 q 581 -13 581 -21 q 581 -28 579 -38 q 577 -49 574 -60 q 571 -71 567 -80 q 562 -89 558 -94 q 554 -99 537 -104 q 521 -109 496 -114 q 471 -119 439 -122 q 407 -125 372 -125 q 309 -125 260 -115 q 212 -105 177 -88 q 142 -71 118 -47 q 95 -23 81 6 q 66 35 61 68 q 55 101 55 136 q 55 166 59 203 q 63 241 75 283 q 86 325 104 369 q 122 413 149 454 q 176 496 213 532 q 250 569 299 596 q 348 623 409 639 q 471 655 546 655 q 626 655 685 638 q 744 621 782 589 q 820 558 838 513 q 857 468 857 414 z m 523 336 q 512 361 497 374 q 483 386 463 386 q 444 386 429 377 q 413 368 401 353 q 388 338 379 319 q 370 300 363 281 q 357 262 354 244 q 351 227 351 214 q 351 189 360 177 q 368 165 387 165 q 401 165 419 175 q 437 185 455 202 q 472 220 487 242 q 501 264 509 290 z m 0 632 z"},".":{"x_min":0,"x_max":267,"ha":267,"o":"m 177 97 q 177 89 175 78 q 174 66 171 53 q 167 41 162 30 q 157 18 150 10 q 142 3 127 -2 q 112 -6 88 -6 q 70 -6 58 -3 q 46 0 39 5 q 32 11 29 20 q 26 29 26 42 q 26 49 28 61 q 29 73 32 85 q 36 98 41 109 q 46 120 54 128 q 62 135 76 140 q 90 145 115 145 q 134 145 146 141 q 159 138 166 132 q 172 125 175 116 q 177 107 177 97 z"},"p":{"x_min":0,"x_max":528,"ha":528,"o":"m 500 314 q 500 282 494 246 q 488 209 476 173 q 464 137 445 103 q 426 70 399 44 q 373 19 338 4 q 304 -11 261 -11 q 241 -11 224 -7 q 207 -3 193 4 q 178 11 167 20 q 155 30 146 41 l 107 -156 q 106 -161 103 -165 q 99 -169 92 -172 q 84 -174 72 -176 q 60 -177 42 -177 q 23 -177 12 -176 q 1 -174 -6 -172 q -12 -169 -14 -165 q -16 -161 -15 -156 l 107 453 q 109 463 122 467 q 135 472 166 472 q 181 472 190 470 q 200 469 205 467 q 211 465 213 461 q 215 458 214 453 l 200 382 q 208 398 223 415 q 239 433 261 447 q 284 461 310 471 q 337 480 365 480 q 403 480 428 467 q 454 454 470 432 q 486 409 493 379 q 500 349 500 314 z m 374 303 q 374 320 371 333 q 368 347 362 357 q 356 366 346 371 q 337 376 323 376 q 301 376 279 363 q 257 350 237 328 q 218 306 203 276 q 188 247 181 213 l 167 146 q 185 120 205 106 q 226 93 253 93 q 273 93 290 103 q 307 112 321 129 q 334 145 344 167 q 354 188 361 211 q 367 235 370 259 q 374 282 374 303 z"},"X":{"x_min":0,"x_max":551,"ha":551,"o":"m 388 326 l 485 50 q 490 32 491 22 q 492 11 485 6 q 479 0 463 -1 q 447 -3 419 -3 q 399 -3 388 -2 q 376 -1 369 1 q 363 3 360 7 q 357 11 355 17 l 279 247 l 117 17 q 112 11 108 7 q 103 3 94 1 q 86 -1 72 -2 q 58 -3 36 -3 q 10 -3 -4 -1 q -19 0 -23 5 q -28 11 -23 21 q -19 31 -6 48 l 202 327 l 114 583 q 108 601 108 611 q 107 621 114 626 q 120 632 136 633 q 151 635 179 635 q 200 635 212 634 q 224 633 230 630 q 237 628 240 624 q 243 619 245 612 l 312 406 l 459 615 q 463 621 468 625 q 473 628 480 631 q 488 633 501 634 q 514 635 536 635 q 562 635 577 633 q 592 632 597 626 q 602 621 597 611 q 593 601 581 583 z"},"*":{"x_min":0,"x_max":498,"ha":498,"o":"m 488 599 q 498 574 496 562 q 494 549 484 546 l 359 501 l 464 456 q 473 453 471 441 q 469 430 450 406 q 432 381 421 376 q 411 371 404 377 l 322 455 l 316 332 q 317 322 305 316 q 294 311 266 311 q 238 311 228 316 q 218 322 222 332 l 266 455 l 157 377 q 147 370 137 377 q 128 384 119 408 q 109 433 111 446 q 113 458 123 461 l 247 506 l 143 549 q 138 551 135 555 q 133 559 134 565 q 135 572 140 581 q 145 590 154 602 q 164 614 171 621 q 179 628 184 631 q 190 634 195 633 q 199 632 203 628 l 283 552 l 288 675 q 288 685 300 690 q 311 696 339 696 q 368 696 377 690 q 387 685 383 675 l 338 552 l 451 631 q 460 638 469 630 q 479 623 488 599 z"},"Y":{"x_min":0,"x_max":520,"ha":520,"o":"m 326 240 l 282 17 q 281 12 277 8 q 273 4 265 2 q 257 0 244 -2 q 231 -3 213 -3 q 194 -3 182 -2 q 170 0 163 2 q 157 4 155 8 q 152 12 153 17 l 197 240 l 94 584 q 88 601 87 611 q 86 622 92 627 q 98 632 112 633 q 127 635 154 635 q 174 635 186 634 q 198 633 205 631 q 212 628 215 624 q 217 619 219 612 l 262 460 q 269 433 275 408 q 280 383 285 356 l 286 356 q 299 383 314 408 q 329 434 345 459 l 446 613 q 450 620 455 624 q 459 628 467 630 q 475 633 488 634 q 500 635 522 635 q 551 635 566 633 q 581 631 585 626 q 590 620 585 610 q 580 600 568 584 z"},"c":{"x_min":0,"x_max":412,"ha":412,"o":"m 419 423 q 419 412 416 398 q 414 384 409 371 q 405 358 398 350 q 392 341 384 341 q 376 341 370 347 q 363 353 353 360 q 343 368 328 374 q 312 380 289 380 q 263 380 243 369 q 223 357 208 340 q 193 322 184 299 q 174 276 167 253 q 161 230 158 209 q 156 188 156 172 q 156 132 173 112 q 190 91 228 91 q 255 91 274 98 q 294 105 308 114 q 322 123 332 129 q 342 136 350 136 q 355 136 357 132 q 359 127 359 119 q 359 111 357 98 q 355 86 352 73 q 349 61 345 50 q 341 39 334 32 q 328 26 313 18 q 299 10 281 3 q 262 -3 240 -7 q 219 -11 195 -11 q 112 -11 70 31 q 29 74 29 156 q 29 186 34 222 q 40 257 53 293 q 65 329 86 363 q 106 396 135 422 q 165 448 203 464 q 242 479 292 479 q 312 479 330 477 q 349 474 364 469 q 380 463 392 457 q 404 450 410 444 q 416 438 417 434 q 419 430 419 423 z"},"!":{"x_min":0,"x_max":326,"ha":326,"o":"m 230 207 q 229 202 226 198 q 222 194 215 192 q 208 189 198 188 q 188 186 172 186 q 157 186 147 188 q 137 189 131 192 q 126 194 124 198 q 122 202 123 207 l 199 650 q 200 657 204 662 q 208 667 217 670 q 225 673 238 674 q 251 676 271 676 q 290 676 302 674 q 315 673 322 670 q 329 667 331 662 q 333 657 332 650 z m 221 95 q 221 86 219 74 q 217 62 214 51 q 211 39 206 28 q 201 18 195 11 q 186 2 171 -3 q 157 -7 134 -7 q 117 -7 105 -5 q 94 -2 87 3 q 81 9 78 16 q 76 24 76 34 q 76 42 77 53 q 79 64 82 77 q 85 89 90 100 q 95 111 102 118 q 113 128 127 133 q 141 137 162 137 q 181 137 192 134 q 204 130 210 125 q 217 119 219 111 q 221 104 221 95 z"},"/":{"x_min":0,"x_max":434,"ha":434,"o":"m 58 -126 q 54 -133 49 -137 q 44 -141 36 -143 q 27 -146 16 -147 q 5 -148 -11 -148 q -32 -148 -45 -146 q -58 -144 -64 -140 q -70 -136 -70 -130 q -69 -124 -65 -116 l 391 704 q 394 710 399 715 q 404 719 412 721 q 420 724 431 725 q 443 726 458 726 q 479 726 492 724 q 505 722 511 718 q 518 714 518 708 q 518 702 513 694 z"},"[":{"x_min":0,"x_max":325,"ha":325,"o":"m 369 674 q 369 670 368 664 q 368 658 366 650 q 365 642 363 634 q 360 625 357 618 q 354 612 350 607 q 346 603 341 603 l 267 603 l 130 -77 l 204 -77 q 210 -77 213 -82 q 216 -86 216 -95 q 216 -99 215 -105 q 214 -111 213 -119 q 211 -127 209 -135 q 207 -144 203 -150 q 200 -157 196 -161 q 192 -165 187 -165 l 35 -165 q 27 -165 21 -163 q 15 -160 11 -155 q 7 -150 5 -143 q 4 -135 6 -124 l 161 650 q 165 672 178 681 q 191 691 208 691 l 358 691 q 369 691 369 674 z"},"6":{"x_min":0,"x_max":507,"ha":507,"o":"m 477 260 q 477 236 472 207 q 467 178 455 148 q 443 118 424 89 q 405 61 375 38 q 346 16 305 2 q 265 -11 212 -11 q 165 -11 132 1 q 100 14 79 37 q 59 61 50 93 q 41 126 41 167 q 41 184 42 213 q 44 243 50 280 q 56 316 67 357 q 78 398 95 439 q 113 479 138 516 q 163 553 197 581 q 231 609 276 626 q 321 643 378 643 q 413 643 441 638 q 469 633 490 625 q 501 621 506 615 q 510 609 510 600 q 510 597 509 590 q 508 583 507 575 q 506 567 503 558 q 501 549 498 542 q 495 534 490 529 q 486 524 481 524 q 475 524 466 528 q 458 531 446 535 q 433 539 416 542 q 399 544 376 544 q 337 544 307 530 q 276 516 254 491 q 232 467 217 434 q 202 401 193 365 q 219 379 251 389 q 283 398 323 398 q 365 398 394 387 q 423 376 442 357 q 460 338 469 313 q 477 288 477 260 z m 349 240 q 349 253 345 265 q 341 276 333 284 q 325 292 312 296 q 299 300 282 300 q 269 300 254 298 q 240 296 227 292 q 213 287 201 281 q 188 275 176 268 q 170 237 167 213 q 165 189 165 170 q 165 125 182 106 q 200 87 233 87 q 253 87 270 95 q 287 103 300 115 q 312 127 322 143 q 331 159 337 176 q 343 193 346 209 q 349 226 349 240 z"},"r":{"x_min":0,"x_max":352,"ha":352,"o":"m 381 459 q 381 456 380 447 q 379 438 377 426 q 375 415 372 402 q 369 390 365 379 q 362 368 357 361 q 353 354 347 354 q 343 354 338 356 q 334 358 329 360 q 323 361 317 363 q 311 365 302 365 q 286 365 267 352 q 248 339 231 319 q 214 298 200 270 q 187 243 181 212 l 142 17 q 141 12 137 8 q 134 4 126 2 q 119 0 106 -2 q 94 -3 77 -3 q 59 -3 47 -2 q 36 0 29 2 q 22 4 21 8 q 19 12 20 17 l 106 453 q 107 458 111 461 q 114 465 121 467 q 127 469 138 470 q 148 472 163 472 q 178 472 188 470 q 197 469 203 467 q 208 465 210 461 q 211 458 210 453 l 197 383 q 208 404 224 422 q 239 439 257 452 q 274 465 292 473 q 311 480 329 480 q 336 480 344 479 q 352 478 358 477 q 365 475 370 473 q 375 471 378 468 q 381 465 381 459 z"},"2":{"x_min":0,"x_max":507,"ha":507,"o":"m 435 80 q 435 76 434 69 q 434 61 432 52 q 430 43 427 34 q 424 25 421 17 q 417 10 412 5 q 408 0 401 0 l 38 0 q 28 0 22 1 q 16 3 12 6 q 8 10 6 15 q 5 20 5 26 q 5 34 6 46 q 8 58 12 73 q 17 88 26 103 q 35 119 49 132 l 198 262 q 228 289 249 312 q 271 334 286 354 q 301 374 311 391 q 320 408 326 422 q 331 436 333 448 q 334 460 334 469 q 334 479 332 489 q 329 499 321 508 q 314 516 301 522 q 288 527 268 527 q 242 527 219 520 q 195 512 176 503 q 157 494 144 487 q 130 479 125 479 q 118 479 115 485 q 113 491 113 501 q 113 505 113 512 q 114 519 115 527 q 116 535 118 544 q 121 553 123 562 q 125 570 129 577 q 133 584 138 589 q 144 595 161 604 q 178 614 202 622 q 227 631 256 637 q 286 643 316 643 q 368 643 402 630 q 436 617 456 597 q 476 577 484 552 q 493 527 493 504 q 493 482 489 461 q 485 439 476 416 q 467 393 451 367 q 435 342 410 313 q 386 284 351 251 q 316 218 269 180 l 179 104 l 419 104 q 428 104 432 97 q 435 89 435 80 z"},"{":{"x_min":0,"x_max":344,"ha":344,"o":"m 397 677 q 397 668 395 657 q 393 645 388 634 q 384 623 378 615 q 373 608 365 608 l 350 608 q 337 608 327 604 q 317 600 310 589 q 303 578 297 560 q 291 542 286 515 l 270 432 q 264 403 253 378 q 243 352 227 332 q 210 311 188 296 q 167 282 138 275 q 158 271 172 260 q 187 249 195 234 q 204 220 208 203 q 212 186 212 169 q 212 158 211 145 q 209 132 207 121 l 186 17 q 183 1 181 -12 q 180 -26 180 -36 q 180 -55 186 -63 q 193 -71 206 -71 l 225 -71 q 236 -71 240 -76 q 244 -81 244 -89 q 244 -93 242 -102 q 241 -111 238 -122 q 236 -132 232 -141 q 229 -150 225 -155 q 222 -157 217 -159 q 212 -161 205 -163 q 198 -164 189 -165 q 180 -166 169 -166 q 140 -166 120 -158 q 100 -150 87 -136 q 75 -123 70 -103 q 64 -83 64 -57 q 64 -42 67 -21 q 69 0 74 26 l 94 125 q 96 133 97 143 q 98 153 98 162 q 98 175 95 187 q 92 198 86 207 q 80 216 70 222 q 60 229 46 231 q 39 233 36 239 q 34 244 34 253 q 34 259 35 269 q 36 278 39 288 q 41 298 44 307 q 48 315 52 319 q 56 324 62 325 q 69 327 78 329 q 87 331 97 336 q 107 341 118 352 q 132 365 141 386 q 150 407 155 433 l 174 526 q 183 570 196 603 q 208 636 228 658 q 248 681 275 691 q 302 702 340 702 q 349 702 357 702 q 365 701 372 700 q 379 699 385 697 q 390 695 392 693 q 395 690 396 686 q 397 681 397 677 z"},"9":{"x_min":0,"x_max":507,"ha":507,"o":"m 67 372 q 67 396 72 425 q 77 454 89 484 q 101 514 120 543 q 140 571 169 594 q 199 616 239 630 q 279 643 332 643 q 379 643 412 630 q 444 618 465 594 q 485 571 495 539 q 504 506 504 465 q 504 448 502 419 q 500 389 494 352 q 488 315 477 274 q 466 233 448 192 q 430 152 404 115 q 378 79 343 50 q 307 22 260 5 q 213 -11 153 -11 q 134 -11 118 -10 q 101 -8 87 -5 q 73 -2 61 2 q 48 5 38 9 q 27 14 23 19 q 19 24 19 34 q 19 37 19 43 q 20 50 21 59 q 23 67 25 76 q 27 85 31 93 q 34 101 38 105 q 42 110 47 110 q 54 110 63 106 q 73 103 87 99 q 101 95 120 91 q 138 88 161 88 q 203 88 234 102 q 266 116 288 140 q 311 165 326 197 q 341 230 350 267 q 325 252 293 243 q 261 234 221 234 q 179 234 150 245 q 121 256 102 275 q 84 294 76 319 q 67 344 67 372 z m 195 392 q 195 378 199 367 q 203 355 211 347 q 219 339 232 335 q 245 331 262 331 q 276 331 290 333 q 304 335 317 340 q 331 344 343 350 q 356 356 368 363 q 374 394 376 419 q 379 443 379 462 q 379 507 362 526 q 344 545 311 545 q 291 545 274 538 q 257 530 244 518 q 231 505 222 489 q 213 473 207 456 q 201 439 198 422 q 195 406 195 392 z"}," ":{"x_min":0,"x_max":226,"ha":226,"o":""},"I":{"x_min":0,"x_max":267,"ha":267,"o":"m 156 17 q 155 12 151 8 q 147 4 139 2 q 131 0 118 -2 q 105 -3 87 -3 q 68 -3 56 -2 q 44 0 37 2 q 30 4 28 8 q 25 12 27 17 l 146 615 q 147 620 151 624 q 155 627 163 630 q 171 632 184 634 q 196 635 215 635 q 233 635 245 634 q 257 632 264 630 q 271 627 274 624 q 276 620 275 615 z"},"H":{"x_min":0,"x_max":631,"ha":631,"o":"m 520 17 q 519 12 515 8 q 511 4 503 2 q 495 0 482 -2 q 470 -3 451 -3 q 433 -3 420 -2 q 408 0 402 2 q 395 4 393 8 q 390 12 392 17 l 442 273 l 206 273 l 155 17 q 154 12 150 8 q 146 4 138 2 q 130 0 118 -2 q 105 -3 87 -3 q 68 -3 56 -2 q 44 0 37 2 q 30 4 28 8 q 25 12 27 17 l 146 615 q 147 620 151 624 q 155 627 163 630 q 170 632 183 634 q 196 635 214 635 q 233 635 245 634 q 257 632 264 630 q 271 627 273 624 q 275 620 274 615 l 228 382 l 465 382 l 511 615 q 512 620 516 624 q 520 627 527 630 q 535 632 548 634 q 561 635 579 635 q 598 635 610 634 q 622 632 629 630 q 636 627 638 624 q 640 620 639 615 z"},"4":{"x_min":0,"x_max":507,"ha":507,"o":"m 481 211 q 481 207 480 199 q 479 191 477 183 q 476 174 473 165 q 470 155 466 148 q 462 140 458 135 q 453 131 448 131 l 392 131 l 369 17 q 368 12 364 8 q 360 4 353 2 q 345 0 333 -2 q 321 -3 303 -3 q 285 -3 273 -2 q 261 0 255 2 q 249 4 246 8 q 244 12 245 17 l 268 131 l 27 131 q 14 131 10 136 q 5 141 5 154 q 5 158 6 167 q 7 175 9 185 q 11 196 14 208 q 17 219 20 231 q 24 242 28 252 q 33 263 38 270 l 305 618 q 308 622 315 625 q 322 628 334 631 q 345 633 362 634 q 379 635 402 635 q 427 635 444 634 q 461 632 471 630 q 481 627 486 623 q 490 619 489 614 l 413 233 l 468 233 q 475 233 478 228 q 481 222 481 211 z m 345 520 l 344 520 l 124 233 l 289 233 z"},"~":{"x_min":0,"x_max":498,"ha":498,"o":"m 526 540 q 526 502 515 470 q 503 439 484 417 q 465 395 438 382 q 412 370 381 370 q 352 370 332 377 q 312 385 299 396 q 285 406 275 419 q 265 432 256 443 q 247 454 236 461 q 226 469 211 469 q 199 469 190 464 q 180 458 174 449 q 167 439 164 427 q 160 414 159 398 q 158 389 147 385 q 136 381 113 381 q 87 381 78 386 q 70 391 70 400 q 70 438 80 469 q 90 500 109 523 q 128 545 155 557 q 182 569 215 569 q 243 569 263 562 q 283 555 297 544 q 312 533 322 521 q 332 508 341 497 q 351 486 361 479 q 371 471 384 471 q 396 471 406 476 q 415 481 421 491 q 428 500 432 513 q 436 526 437 543 q 437 552 449 555 q 460 559 482 559 q 496 559 504 558 q 512 557 517 554 q 522 552 524 548 q 526 544 526 540 z"},"D":{"x_min":0,"x_max":630,"ha":630,"o":"m 620 403 q 620 374 616 341 q 613 309 604 275 q 596 241 581 207 q 567 174 545 143 q 524 113 494 86 q 465 60 426 41 q 388 21 339 11 q 291 0 224 0 l 63 0 q 56 0 49 2 q 42 4 37 9 q 32 13 31 21 q 29 29 31 41 l 142 591 q 146 613 159 622 q 172 632 190 632 l 342 632 q 417 632 468 617 q 519 603 552 574 q 586 545 603 502 q 620 459 620 403 z m 485 388 q 485 419 477 445 q 469 472 450 491 q 432 510 403 521 q 374 531 325 531 l 258 531 l 171 102 l 239 102 q 290 102 325 114 q 360 126 386 148 q 413 170 432 198 q 451 227 463 259 q 475 291 480 324 q 485 357 485 388 z"},"^":{"x_min":0,"x_max":498,"ha":498,"o":"m 486 291 q 489 277 489 269 q 489 261 483 256 q 477 252 464 251 q 452 250 430 250 q 411 250 399 251 q 386 252 379 255 q 373 257 369 261 q 366 266 365 271 l 310 536 l 308 535 l 151 271 q 147 266 142 261 q 137 257 128 255 q 120 252 107 251 q 94 250 75 250 q 54 250 42 251 q 30 252 26 256 q 21 261 24 269 q 27 277 36 291 l 242 611 q 246 618 252 622 q 259 627 270 630 q 280 633 295 635 q 310 637 329 637 q 349 637 363 635 q 376 633 386 630 q 395 627 400 622 q 405 618 407 611 z"},"0":{"x_min":0,"x_max":507,"ha":507,"o":"m 512 452 q 512 427 509 395 q 506 362 499 326 q 493 289 483 251 q 473 213 458 177 q 444 141 426 109 q 407 78 384 55 q 354 25 312 7 q 269 -11 209 -11 q 161 -11 127 2 q 93 15 71 40 q 50 64 40 100 q 30 136 30 181 q 30 205 33 237 q 36 270 43 306 q 49 342 59 380 q 69 418 84 454 q 98 490 116 522 q 135 554 158 577 q 173 592 191 604 q 209 617 231 625 q 252 634 278 638 q 303 643 333 643 q 383 643 417 629 q 452 616 473 591 q 494 566 503 531 q 512 496 512 452 z m 384 450 q 384 498 368 520 q 352 542 315 542 q 294 542 278 534 q 262 527 249 514 q 234 499 221 472 q 208 446 198 414 q 188 382 181 347 q 173 312 168 281 q 163 249 160 222 q 158 196 158 182 q 158 135 174 113 q 190 91 227 91 q 248 91 264 98 q 280 105 293 118 q 308 133 321 159 q 333 186 344 218 q 354 250 362 284 q 369 319 374 351 q 379 383 382 409 q 384 435 384 450 z"},"F":{"x_min":0,"x_max":459,"ha":459,"o":"m 497 611 q 497 608 496 601 q 496 593 494 584 q 492 575 490 565 q 487 555 484 546 q 480 538 475 532 q 470 527 464 527 l 257 527 l 223 357 l 417 357 q 424 357 427 352 q 430 346 430 337 q 430 334 429 326 q 428 319 427 310 q 425 301 422 291 q 419 281 416 273 q 412 265 407 259 q 402 254 396 254 l 203 254 l 156 18 q 155 13 151 9 q 147 5 139 2 q 131 0 119 -1 q 106 -3 87 -3 q 68 -3 56 -1 q 44 0 38 2 q 31 5 28 9 q 26 13 27 18 l 142 591 q 146 613 159 622 q 172 632 188 632 l 484 632 q 493 632 495 626 q 497 621 497 611 z"},"`":{"x_min":0,"x_max":300,"ha":300,"o":"m 319 554 q 323 548 324 543 q 325 538 321 535 q 316 532 307 530 q 297 529 280 529 q 266 529 256 530 q 247 530 241 532 q 235 535 231 538 q 227 541 223 546 l 133 659 q 129 665 129 669 q 128 674 134 678 q 140 682 153 684 q 167 686 189 686 q 206 686 216 685 q 227 684 234 682 q 242 679 246 676 q 250 672 254 666 z m 0 469 z"},"k":{"x_min":0,"x_max":480,"ha":480,"o":"m 496 454 q 496 446 489 436 q 482 425 467 409 l 313 264 l 414 54 q 418 42 420 34 q 422 25 422 20 q 422 14 419 10 q 416 5 408 2 q 401 0 388 -2 q 375 -3 355 -3 q 336 -3 324 -2 q 312 -1 305 1 q 299 4 296 8 q 292 12 291 18 l 188 247 l 142 17 q 141 12 137 8 q 133 4 126 2 q 118 0 106 -2 q 94 -3 76 -3 q 58 -3 47 -2 q 35 0 29 2 q 22 4 20 8 q 18 11 19 16 l 148 659 q 149 664 152 667 q 156 671 164 674 q 171 677 183 678 q 195 680 213 680 q 231 680 243 678 q 254 677 261 674 q 267 671 269 667 q 271 664 270 659 l 194 276 l 357 451 q 362 457 367 461 q 373 465 382 467 q 391 470 403 471 q 416 472 434 472 q 452 472 464 471 q 477 470 483 468 q 490 465 493 462 q 496 458 496 454 z"},"u":{"x_min":0,"x_max":527,"ha":527,"o":"m 423 16 q 422 11 419 8 q 416 4 409 2 q 403 0 393 -2 q 382 -3 367 -3 q 352 -3 343 -2 q 333 0 328 2 q 322 4 321 8 q 319 11 320 16 l 333 87 q 324 70 307 52 q 290 35 267 21 q 245 6 219 -2 q 193 -11 166 -11 q 132 -11 108 -2 q 84 8 70 24 q 56 41 49 63 q 42 86 42 113 q 42 130 45 147 q 47 165 50 183 l 104 453 q 105 458 109 461 q 112 465 120 467 q 127 469 140 470 q 152 472 169 472 q 188 472 199 470 q 210 469 217 467 q 223 465 225 461 q 228 458 227 453 l 175 191 q 172 180 171 168 q 170 157 170 146 q 170 134 172 125 q 174 115 179 108 q 184 102 192 98 q 199 95 210 95 q 230 95 252 108 q 273 121 293 143 q 312 166 328 197 q 343 228 351 264 l 388 453 q 389 458 393 461 q 396 465 404 467 q 412 469 424 470 q 436 472 454 472 q 472 472 483 470 q 495 469 501 467 q 508 465 510 461 q 512 458 511 453 z"},"]":{"x_min":0,"x_max":325,"ha":325,"o":"m 178 -124 q 174 -146 161 -156 q 148 -165 132 -165 l -19 -165 q -24 -165 -27 -160 q -30 -156 -30 -146 q -30 -143 -30 -136 q -29 -130 -27 -122 q -26 -115 -24 -107 q -21 -99 -18 -92 q -15 -85 -11 -81 q -6 -77 -1 -77 l 72 -77 l 208 603 l 135 603 q 128 603 126 608 q 123 612 123 621 q 123 625 124 631 q 125 638 126 646 q 127 653 129 662 q 132 670 135 676 q 138 683 143 687 q 147 691 153 691 l 304 691 q 312 691 318 689 q 325 687 329 681 q 333 676 334 668 q 335 661 333 650 z"},"U":{"x_min":0,"x_max":653,"ha":653,"o":"m 585 233 q 573 172 547 127 q 521 81 483 50 q 444 20 394 4 q 344 -11 284 -11 q 219 -11 173 5 q 127 21 100 52 q 73 83 65 130 q 58 177 70 239 l 146 614 q 146 619 150 623 q 154 627 162 629 q 170 632 182 633 q 195 635 214 635 q 232 635 245 633 q 257 632 264 629 q 271 627 273 623 q 275 619 274 614 l 199 239 q 191 202 194 174 q 198 147 211 129 q 224 111 246 103 q 268 94 298 94 q 330 94 356 104 q 383 113 403 132 q 424 150 438 176 q 453 203 459 236 l 535 614 q 536 619 540 623 q 543 627 551 629 q 559 632 571 633 q 584 635 603 635 q 621 635 633 633 q 645 632 651 629 q 658 627 660 623 q 663 619 662 614 z"},"o":{"x_min":0,"x_max":527,"ha":527,"o":"m 500 306 q 500 271 493 233 q 487 196 473 161 q 458 125 436 94 q 414 63 383 40 q 352 16 312 2 q 272 -11 222 -11 q 172 -11 136 0 q 101 12 77 34 q 53 56 41 89 q 29 121 29 163 q 29 198 36 235 q 42 272 57 308 q 71 343 93 374 q 115 406 146 429 q 177 453 217 466 q 257 480 308 480 q 357 480 393 469 q 429 457 453 435 q 477 413 488 380 q 500 348 500 306 z m 373 297 q 373 318 369 334 q 365 350 355 361 q 346 372 331 377 q 316 383 294 383 q 270 383 250 374 q 231 364 216 348 q 200 332 189 311 q 178 290 170 266 q 163 243 160 219 q 156 194 156 172 q 156 152 160 136 q 165 120 174 109 q 184 98 198 92 q 213 86 235 86 q 259 86 279 95 q 298 105 314 121 q 329 138 340 159 q 352 180 359 204 q 366 228 370 251 q 373 275 373 297 z"},"N":{"x_min":0,"x_max":656,"ha":656,"o":"m 550 45 q 548 34 543 25 q 537 16 530 10 q 522 4 513 2 q 504 -1 494 -1 l 439 -1 q 422 -1 411 2 q 399 6 391 15 q 383 23 377 39 q 371 54 364 77 l 271 359 q 260 392 251 425 q 242 458 233 491 l 232 491 q 228 453 221 415 q 215 378 207 340 l 143 18 q 142 13 138 9 q 134 5 127 2 q 120 0 108 -1 q 97 -3 80 -3 q 62 -3 52 -1 q 41 0 35 2 q 29 5 27 9 q 25 13 27 18 l 141 586 q 145 609 161 620 q 176 632 196 632 l 263 632 q 279 632 290 628 q 302 625 310 616 q 318 608 324 596 q 330 583 335 564 l 430 280 q 439 252 447 226 q 454 199 462 172 l 463 172 q 469 207 475 244 q 482 282 489 317 l 549 615 q 550 620 553 623 q 557 627 564 629 q 571 631 582 633 q 593 634 610 634 q 627 634 639 633 q 650 631 656 629 q 662 627 664 623 q 666 620 665 615 z"},"+":{"x_min":0,"x_max":498,"ha":498,"o":"m 487 309 q 487 305 486 298 q 485 292 484 283 q 482 274 479 265 q 477 256 473 249 q 469 242 464 237 q 459 232 453 232 l 301 232 l 268 67 q 267 62 263 58 q 260 55 254 52 q 248 49 238 48 q 228 46 213 46 q 198 46 189 48 q 179 49 174 52 q 168 55 167 58 q 165 62 166 67 l 199 232 l 48 232 q 41 232 37 238 q 33 243 33 256 q 33 259 34 266 q 35 273 36 281 q 38 290 40 298 q 43 306 47 313 q 50 320 55 325 q 60 329 65 329 l 218 329 l 251 494 q 252 499 256 503 q 259 507 266 510 q 272 513 282 514 q 292 516 307 516 q 322 516 331 514 q 340 513 346 510 q 351 507 353 503 q 354 499 354 494 l 320 329 l 473 329 q 480 329 483 324 q 487 319 487 309 z"},"G":{"x_min":0,"x_max":637,"ha":637,"o":"m 641 564 q 641 560 640 552 q 639 544 637 535 q 636 526 633 517 q 631 508 627 500 q 624 493 620 489 q 616 484 611 484 q 604 484 591 492 q 578 500 557 511 q 536 521 505 529 q 475 538 434 538 q 392 538 357 526 q 323 514 294 493 q 266 472 244 444 q 222 416 207 384 q 192 352 185 317 q 178 282 178 249 q 178 211 188 183 q 199 154 219 135 q 240 116 269 106 q 297 97 333 97 q 357 97 380 102 q 404 106 424 116 l 453 262 l 334 262 q 328 262 325 267 q 321 271 321 282 q 321 287 322 294 q 323 302 325 311 q 327 319 329 328 q 332 337 335 344 q 339 351 343 355 q 348 359 353 359 l 566 359 q 583 359 589 349 q 596 338 592 318 l 542 65 q 540 56 537 50 q 534 43 529 38 q 523 32 504 24 q 484 16 456 8 q 428 0 394 -5 q 359 -11 323 -11 q 255 -11 203 5 q 151 21 116 52 q 82 83 63 127 q 45 172 45 231 q 45 284 57 334 q 68 385 91 431 q 114 477 147 515 q 181 554 225 583 q 269 611 323 627 q 377 643 442 643 q 478 643 509 637 q 541 631 566 623 q 591 615 608 606 q 625 597 631 592 q 637 586 639 580 q 641 574 641 564 z"},"q":{"x_min":0,"x_max":528,"ha":528,"o":"m 390 -156 q 389 -161 385 -165 q 381 -169 374 -172 q 366 -174 354 -176 q 342 -177 324 -177 q 306 -177 295 -176 q 283 -174 277 -172 q 271 -169 268 -165 q 266 -161 267 -156 l 295 -15 q 298 -4 301 8 q 304 20 307 32 q 311 45 315 56 q 318 67 322 76 q 313 61 297 45 q 280 29 259 17 q 238 4 214 -3 q 190 -11 166 -11 q 129 -11 104 1 q 78 13 62 35 q 45 57 38 87 q 30 117 30 154 q 30 185 36 221 q 42 257 54 293 q 66 330 85 363 q 104 397 131 423 q 157 449 192 465 q 227 480 270 480 q 311 480 342 463 q 373 446 396 414 l 404 453 q 406 463 420 468 q 433 472 463 472 q 478 472 487 471 q 497 470 503 467 q 508 465 510 461 q 512 458 511 453 z m 363 322 q 346 349 325 363 q 305 376 277 376 q 256 376 239 366 q 222 355 208 338 q 195 321 185 300 q 175 278 169 254 q 163 231 160 208 q 157 185 157 166 q 157 128 170 110 q 183 93 208 93 q 229 93 251 106 q 274 119 293 141 q 313 163 328 193 q 343 223 350 256 z"},"d":{"x_min":0,"x_max":528,"ha":528,"o":"m 424 16 q 422 6 409 1 q 396 -3 366 -3 q 351 -3 341 -2 q 332 -1 326 1 q 320 3 318 7 q 316 11 317 16 l 331 86 q 323 70 307 53 q 291 36 269 21 q 247 7 220 -2 q 194 -11 166 -11 q 138 -11 117 -4 q 96 3 81 15 q 66 27 57 44 q 47 61 41 79 q 35 98 33 117 q 30 137 30 156 q 30 188 36 224 q 42 261 54 297 q 67 333 86 366 q 105 399 132 424 q 158 450 193 465 q 227 480 270 480 q 289 480 306 476 q 324 472 338 465 q 353 458 364 448 q 376 438 384 427 l 431 657 q 432 662 435 666 q 438 670 446 673 q 454 675 466 677 q 478 678 496 678 q 514 678 525 677 q 537 675 543 673 q 549 670 551 666 q 553 662 552 657 z m 363 321 q 346 348 325 362 q 305 375 277 375 q 257 375 240 366 q 224 356 210 341 q 197 325 187 303 q 177 282 170 259 q 164 235 160 212 q 157 188 157 167 q 157 130 169 112 q 181 93 208 93 q 229 93 251 106 q 274 119 293 140 q 313 162 328 192 q 343 221 350 255 z"},"1":{"x_min":0,"x_max":507,"ha":507,"o":"m 429 79 q 429 75 428 68 q 427 61 426 52 q 424 42 421 34 q 419 25 415 17 q 412 9 407 5 q 402 0 396 0 l 47 0 q 41 0 38 5 q 34 11 34 21 q 34 25 35 32 q 36 39 37 48 q 39 56 42 65 q 44 75 48 82 q 52 89 57 94 q 62 99 68 99 l 185 99 l 266 505 l 153 449 q 143 444 137 443 q 130 442 127 444 q 124 445 122 450 q 121 454 121 461 q 121 468 122 480 q 124 491 127 504 q 130 516 136 527 q 142 538 150 542 l 305 630 q 308 632 312 633 q 316 634 322 635 q 328 636 338 636 q 348 636 363 636 q 381 636 393 635 q 404 635 409 633 q 415 631 416 628 q 417 625 417 621 l 312 99 l 417 99 q 423 99 426 94 q 429 89 429 79 z"},"5":{"x_min":0,"x_max":507,"ha":507,"o":"m 459 242 q 459 210 452 179 q 444 148 429 120 q 414 92 390 68 q 366 44 334 26 q 302 9 261 -1 q 220 -11 170 -11 q 149 -11 129 -9 q 108 -6 89 -2 q 70 2 54 8 q 38 13 25 20 q 18 23 15 28 q 12 33 12 43 q 12 46 13 54 q 14 62 15 71 q 17 81 19 90 q 21 100 25 108 q 28 117 32 122 q 36 127 42 127 q 46 127 56 122 q 66 116 81 109 q 97 103 119 97 q 141 91 170 91 q 207 91 235 102 q 263 112 282 130 q 302 147 311 172 q 321 196 321 224 q 321 238 316 250 q 312 263 299 272 q 287 282 266 288 q 245 293 213 293 q 181 293 156 291 q 131 288 110 288 q 96 288 91 295 q 86 302 90 321 l 145 595 q 149 615 158 623 q 167 632 184 632 l 483 632 q 491 632 494 626 q 497 621 497 611 q 497 606 496 598 q 495 589 493 580 q 491 570 488 560 q 485 549 481 541 q 478 533 473 527 q 468 522 461 522 l 237 522 l 210 387 q 227 388 240 389 q 252 390 268 390 q 319 390 355 379 q 392 368 415 348 q 438 329 449 301 q 459 274 459 242 z"}}}
